<?xml version="1.0" encoding="UTF-8"?>
<svg xmlns="http://www.w3.org/2000/svg" xmlns:xlink="http://www.w3.org/1999/xlink" width="80pt" height="80pt" viewBox="0 0 80 80" version="1.1">
<g id="surface177139">
<path style=" stroke:none;fill-rule:nonzero;fill:rgb(74.117647%,74.117647%,74.117647%);fill-opacity:1;" d="M 39.886719 3.332031 L 5 15.476562 L 10.511719 60.679688 L 39.925781 76.667969 L 69.488281 60.464844 L 75 15.261719 Z M 39.886719 3.332031 "/>
<path style=" stroke:none;fill-rule:nonzero;fill:rgb(71.764706%,10.980392%,10.980392%);fill-opacity:1;" d="M 71.363281 17.546875 L 40 6.890625 L 40 72.824219 L 66.386719 58.363281 Z M 71.363281 17.546875 "/>
<path style=" stroke:none;fill-rule:nonzero;fill:rgb(86.666667%,17.254902%,0%);fill-opacity:1;" d="M 39.902344 6.859375 L 8.636719 17.738281 L 13.613281 58.570312 L 39.917969 72.867188 L 40 72.824219 L 40 6.890625 Z M 39.902344 6.859375 "/>
<path style=" stroke:none;fill-rule:nonzero;fill:rgb(74.117647%,74.117647%,74.117647%);fill-opacity:1;" d="M 40 9.992188 L 40 25.839844 L 54.296875 56.667969 L 61.644531 56.667969 Z M 40 9.992188 "/>
<path style=" stroke:none;fill-rule:nonzero;fill:rgb(93.333333%,93.333333%,93.333333%);fill-opacity:1;" d="M 18.355469 56.667969 L 25.703125 56.667969 L 40 25.839844 L 40 9.992188 Z M 18.355469 56.667969 "/>
<path style=" stroke:none;fill-rule:nonzero;fill:rgb(74.117647%,74.117647%,74.117647%);fill-opacity:1;" d="M 40 40 L 50 40 L 50 46.667969 L 40 46.667969 Z M 40 40 "/>
<path style=" stroke:none;fill-rule:nonzero;fill:rgb(93.333333%,93.333333%,93.333333%);fill-opacity:1;" d="M 30 40 L 40 40 L 40 46.667969 L 30 46.667969 Z M 30 40 "/>
</g>
</svg>
