<?xml version="1.0" encoding="UTF-8"?>
<svg xmlns="http://www.w3.org/2000/svg" xmlns:xlink="http://www.w3.org/1999/xlink" width="80pt" height="80pt" viewBox="0 0 80 80" version="1.1">
<g id="surface175876">
<path style=" stroke:none;fill-rule:nonzero;fill:rgb(90.196078%,31.764706%,0%);fill-opacity:1;" d="M 68.332031 8.332031 L 11.667969 8.332031 L 16.667969 65 L 40 71.667969 L 63.332031 65 Z M 68.332031 8.332031 "/>
<path style=" stroke:none;fill-rule:nonzero;fill:rgb(100%,42.745098%,0%);fill-opacity:1;" d="M 40 13.332031 L 40 66.5 L 58.667969 61.167969 L 62.832031 13.332031 Z M 40 13.332031 "/>
<path style=" stroke:none;fill-rule:nonzero;fill:rgb(100%,100%,100%);fill-opacity:1;" d="M 40 41.667969 L 40 35 L 54.332031 35 L 53.167969 54.167969 L 40 58.5 L 40 51.5 L 46.832031 49.167969 L 47.332031 41.667969 Z M 54.832031 28.332031 L 55.332031 21.667969 L 40 21.667969 L 40 28.332031 Z M 54.832031 28.332031 "/>
<path style=" stroke:none;fill-rule:nonzero;fill:rgb(93.333333%,93.333333%,93.333333%);fill-opacity:1;" d="M 40 51.5 L 40 58.5 L 26.832031 54.167969 L 26.167969 45 L 32.832031 45 L 33.167969 49.167969 Z M 31.832031 28.332031 L 40 28.332031 L 40 21.667969 L 24.832031 21.667969 L 26 41.667969 L 40 41.667969 L 40 35 L 32.332031 35 Z M 31.832031 28.332031 "/>
</g>
</svg>
