<?xml version="1.0" encoding="UTF-8" standalone="yes"?>
<svg xmlns="http://www.w3.org/2000/svg" xmlns:xlink="http://www.w3.org/1999/xlink" width="80pt" height="80pt" viewBox="0 0 80 80" version="1.1" fill="#000000">
  <g id="surface177131">
    <path style=" stroke:none;fill-rule:nonzero;fill:#000000;fill-opacity:1;" d="M 43.203125 75.199219 C 43.203125 75.199219 43.203125 75.199219 43.199219 75.199219 C 40.453125 75.199219 37.546875 74.921875 34.566406 74.371094 C 34.152344 74.292969 33.761719 74.171875 33.371094 74.046875 L 33.0625 73.949219 C 33.042969 73.945312 32.945312 73.917969 32.847656 73.886719 C 32.289062 73.710938 31.851562 73.566406 31.40625 73.414062 C 31.378906 73.402344 31.207031 73.339844 31.175781 73.328125 C 30.84375 73.207031 30.441406 73.058594 30.054688 72.90625 C 30.035156 72.902344 29.945312 72.867188 29.859375 72.832031 C 29.316406 72.613281 28.894531 72.4375 28.476562 72.257812 C 28.476562 72.253906 28.328125 72.1875 28.324219 72.183594 C 27.863281 71.976562 27.496094 71.808594 27.132812 71.628906 C 27.097656 71.609375 26.84375 71.484375 26.8125 71.464844 C 26.453125 71.292969 26.214844 71.164062 25.992188 71.039062 C 25.835938 70.964844 25.65625 70.875 25.46875 70.769531 C 25.167969 70.609375 24.84375 70.425781 24.527344 70.238281 L 24.25 70.082031 C 23.738281 69.773438 23.320312 69.515625 22.898438 69.242188 L 21.75 68.476562 C 21.71875 68.457031 21.671875 68.421875 21.621094 68.382812 C 21.515625 68.3125 21.414062 68.238281 21.3125 68.164062 C 21.011719 67.945312 20.75 67.757812 20.496094 67.566406 L 18.960938 66.359375 C 18.664062 66.113281 18.367188 65.859375 18.070312 65.601562 C 18.054688 65.585938 17.832031 65.390625 17.8125 65.375 C 17.578125 65.175781 17.273438 64.886719 16.964844 64.597656 L 16.71875 64.367188 C 16.71875 64.367188 16.601562 64.257812 16.601562 64.253906 C 16.351562 64.019531 16.113281 63.773438 15.875 63.527344 L 15.59375 63.25 C 15.285156 62.933594 15 62.625 14.71875 62.316406 C 14.671875 62.273438 14.628906 62.222656 14.59375 62.175781 C 14.292969 61.847656 14 61.511719 13.726562 61.171875 L 13.59375 61.019531 C 13.589844 61.011719 13.484375 60.890625 13.476562 60.878906 L 12.566406 59.726562 C 12.359375 59.464844 12.125 59.15625 11.894531 58.835938 L 11.796875 58.695312 C 11.789062 58.679688 11.777344 58.667969 11.765625 58.65625 C 11.488281 58.28125 11.234375 57.898438 10.984375 57.511719 C 10.9375 57.445312 10.863281 57.335938 10.792969 57.21875 L 10.539062 56.816406 C 10.433594 56.648438 10.328125 56.480469 10.226562 56.316406 C 10.195312 56.277344 10.125 56.152344 10.050781 56.03125 L 9.535156 55.152344 C 9.402344 54.914062 9.324219 54.769531 9.25 54.617188 C 9.21875 54.578125 9.148438 54.453125 9.09375 54.335938 C 9.0625 54.292969 8.964844 54.105469 8.882812 53.925781 L 8.828125 53.824219 C 8.730469 53.640625 8.636719 53.460938 8.550781 53.269531 C 4.0625 44.226562 2.800781 29.4375 9.335938 19.921875 C 9.589844 19.515625 11.875 15.953125 14.929688 13.210938 C 15.542969 12.660156 16.46875 12.664062 17.078125 13.214844 C 17.683594 13.769531 17.777344 14.691406 17.285156 15.351562 C 12.4375 21.902344 14.0625 39.808594 20.285156 48.382812 C 20.519531 48.703125 20.746094 49.015625 20.984375 49.320312 C 21.085938 49.449219 21.179688 49.566406 21.261719 49.6875 L 21.933594 50.511719 C 22.300781 50.949219 22.578125 51.269531 22.863281 51.585938 C 23.175781 51.929688 23.449219 52.222656 23.726562 52.503906 L 24.855469 53.628906 C 25.246094 53.992188 25.566406 54.289062 25.886719 54.582031 C 25.929688 54.613281 25.964844 54.640625 26 54.671875 C 26.285156 54.921875 26.566406 55.164062 26.859375 55.40625 L 27.207031 55.691406 C 27.390625 55.839844 27.59375 55.996094 27.792969 56.152344 C 28.019531 56.320312 28.15625 56.429688 28.289062 56.535156 C 28.511719 56.695312 28.777344 56.890625 29.042969 57.078125 L 29.203125 57.195312 C 29.597656 57.46875 29.867188 57.648438 30.136719 57.824219 C 30.292969 57.933594 30.375 57.992188 30.464844 58.046875 C 30.871094 58.308594 31.269531 58.550781 31.667969 58.792969 C 31.796875 58.859375 31.9375 58.941406 32.070312 59.03125 L 33.371094 59.734375 C 33.660156 59.886719 33.886719 60.007812 34.113281 60.113281 C 34.136719 60.125 34.394531 60.25 34.417969 60.261719 C 34.746094 60.425781 35.070312 60.574219 35.40625 60.734375 L 35.625 60.824219 C 36 60.992188 36.386719 61.15625 36.773438 61.3125 L 37.125 61.449219 C 37.429688 61.566406 37.78125 61.703125 38.132812 61.824219 C 38.132812 61.824219 38.316406 61.890625 38.316406 61.890625 C 38.714844 62.027344 39.117188 62.164062 39.527344 62.289062 L 40.125 62.472656 C 40.433594 62.566406 40.742188 62.660156 41.054688 62.734375 C 53.75 65.652344 64.839844 62.773438 70.726562 55.03125 C 71.210938 54.398438 72.085938 54.21875 72.777344 54.601562 C 73.476562 54.988281 73.777344 55.828125 73.496094 56.570312 C 73.425781 56.757812 66.125 75.199219 43.203125 75.199219 Z M 43.203125 75.199219 "/>
    <path style=" stroke:none;fill-rule:nonzero;fill:#000000;fill-opacity:1;" d="M 52.125 52.800781 C 50.117188 52.800781 48 52.613281 45.816406 52.246094 C 45.371094 52.175781 44.96875 52.039062 44.617188 51.921875 L 43.917969 51.6875 C 43.613281 51.585938 43.308594 51.480469 43.007812 51.371094 C 42.996094 51.367188 42.835938 51.308594 42.824219 51.300781 L 42.636719 51.234375 C 42.226562 51.078125 41.890625 50.933594 41.558594 50.789062 L 41.046875 50.566406 C 40.71875 50.414062 40.390625 50.265625 40.066406 50.101562 C 40.042969 50.089844 39.929688 50.035156 39.90625 50.023438 L 39.417969 49.769531 C 39.199219 49.652344 39.105469 49.601562 39.015625 49.546875 C 38.816406 49.449219 38.515625 49.273438 38.226562 49.097656 C 37.78125 48.839844 37.46875 48.648438 37.152344 48.4375 L 36.980469 48.324219 L 36.824219 48.222656 C 36.671875 48.121094 36.523438 48.027344 36.378906 47.921875 C 36.332031 47.894531 36.285156 47.867188 36.238281 47.832031 C 35.8125 47.523438 35.390625 47.210938 34.980469 46.886719 L 34.835938 46.773438 C 34.308594 46.359375 33.90625 46.023438 33.511719 45.671875 C 33.480469 45.644531 33.445312 45.617188 33.414062 45.585938 C 33.414062 45.582031 33.414062 45.582031 33.414062 45.582031 C 33.0625 45.269531 32.726562 44.945312 32.390625 44.621094 C 32.386719 44.617188 32.269531 44.5 32.261719 44.492188 L 32.105469 44.332031 C 31.78125 44.007812 31.453125 43.667969 31.144531 43.320312 C 30.257812 42.519531 29.5625 41.496094 28.945312 40.585938 L 28.726562 40.273438 C 27.992188 39.210938 27.308594 38.054688 26.703125 36.839844 C 22.835938 29.191406 23.160156 20.125 27.539062 13.757812 C 27.554688 13.734375 27.570312 13.714844 27.585938 13.691406 C 27.691406 13.554688 30.164062 10.332031 32.585938 8.359375 C 33.183594 7.867188 34.046875 7.878906 34.636719 8.378906 C 35.222656 8.882812 35.371094 9.730469 34.980469 10.398438 C 31.992188 15.5625 31.003906 21.230469 32.335938 25.5625 C 33.765625 30.277344 36.820312 34.683594 40.941406 37.972656 L 41.117188 38.117188 C 41.566406 38.46875 41.945312 38.757812 42.335938 39.03125 C 42.503906 39.144531 42.683594 39.265625 42.871094 39.386719 C 42.886719 39.394531 43.007812 39.480469 43.023438 39.488281 L 43.171875 39.585938 C 43.390625 39.730469 43.621094 39.871094 43.851562 40.011719 L 44.003906 40.105469 L 44.160156 40.195312 C 44.441406 40.359375 44.628906 40.472656 44.832031 40.578125 L 45.742188 41.054688 C 46.070312 41.210938 46.445312 41.390625 46.820312 41.554688 L 47.035156 41.644531 C 47.34375 41.789062 47.601562 41.886719 47.859375 41.988281 L 48.304688 42.160156 C 48.617188 42.273438 48.890625 42.371094 49.167969 42.460938 C 49.300781 42.503906 49.371094 42.53125 49.453125 42.554688 C 49.929688 42.710938 50.320312 42.824219 50.71875 42.929688 C 59.335938 45.195312 67.796875 42.433594 72.273438 35.894531 C 72.71875 35.246094 73.566406 35.015625 74.28125 35.355469 C 74.992188 35.691406 75.351562 36.492188 75.132812 37.246094 C 75.085938 37.398438 70.496094 52.40625 52.832031 52.792969 C 52.601562 52.796875 52.363281 52.800781 52.125 52.800781 Z M 52.125 52.800781 "/>
    <path style=" stroke:none;fill-rule:nonzero;fill:#000000;fill-opacity:1;" d="M 59.746094 33.601562 C 59.550781 33.601562 59.351562 33.597656 59.152344 33.59375 C 57.984375 33.554688 56.753906 33.410156 55.484375 33.160156 C 55.230469 33.105469 54.976562 33.027344 54.726562 32.945312 L 54.546875 32.886719 C 54.511719 32.875 54.277344 32.800781 54.246094 32.789062 C 53.972656 32.691406 53.8125 32.636719 53.652344 32.574219 C 48.832031 30.765625 44.777344 26.886719 42.832031 22.207031 C 41.996094 20.191406 41.578125 18.097656 41.601562 15.980469 C 41.628906 13.164062 42.457031 10.453125 43.996094 8.140625 C 44.011719 8.117188 44.03125 8.09375 44.050781 8.066406 C 44.347656 7.667969 45.914062 5.644531 47.289062 4.964844 C 47.929688 4.648438 48.707031 4.796875 49.1875 5.328125 C 49.667969 5.859375 49.734375 6.644531 49.355469 7.25 C 46.503906 11.792969 48.414062 19.664062 53.289062 23.441406 C 54.113281 24.082031 55.027344 24.65625 55.996094 25.136719 C 56.484375 25.371094 57.003906 25.59375 57.53125 25.785156 C 57.933594 25.933594 58.382812 26.085938 58.792969 26.1875 C 64.335938 27.566406 68.335938 26.515625 70.675781 23.074219 C 70.679688 23.074219 70.679688 23.070312 70.679688 23.070312 C 71.179688 22.34375 72.171875 22.15625 72.902344 22.652344 C 73.632812 23.152344 73.820312 24.144531 73.324219 24.875 C 73.320312 24.878906 73.320312 24.882812 73.316406 24.886719 C 73.246094 24.988281 73.164062 25.148438 73.054688 25.351562 C 71.917969 27.414062 68.519531 33.601562 59.746094 33.601562 Z M 59.746094 33.601562 "/>
  </g>
</svg>