<?xml version="1.0" encoding="UTF-8"?>
<svg xmlns="http://www.w3.org/2000/svg" xmlns:xlink="http://www.w3.org/1999/xlink" width="80pt" height="80pt" viewBox="0 0 80 80" version="1.1">
<g id="surface280865">
<path style=" stroke:none;fill-rule:nonzero;fill:rgb(52.156863%,79.607843%,97.254902%);fill-opacity:1;" d="M 40 5 C 27.589844 5 23.75 10.886719 23.75 14.703125 L 23.75 21.25 L 40 21.25 L 40 26.25 L 14.703125 26.25 C 9.773438 26.25 5 29.820312 5 40 C 5 50.179688 9.773438 53.75 14.703125 53.75 L 24.089844 53.75 L 24.089844 46.363281 C 24.089844 42.863281 26.953125 40 30.453125 40 L 49.546875 40 C 53.046875 40 56.25 37.136719 56.25 33.636719 L 56.25 14.703125 C 56.25 10.726562 52.410156 5 40 5 Z M 40 5 "/>
<path style=" stroke:none;fill-rule:nonzero;fill:rgb(97.647059%,86.666667%,56.078431%);fill-opacity:1;" d="M 40 75 C 52.410156 75 55.910156 69.113281 55.910156 65.296875 L 55.910156 58.75 L 40 58.75 L 40 53.75 L 65.296875 53.75 C 70.226562 53.75 75 50.179688 75 40 C 75 29.820312 70.226562 26.25 65.296875 26.25 L 56.25 26.25 L 56.25 33.636719 C 56.25 37.136719 53.046875 40 49.546875 40 L 30.453125 40 C 26.953125 40 23.75 42.863281 23.75 46.363281 L 23.75 65.296875 C 23.75 69.113281 27.589844 75 40 75 Z M 40 75 "/>
<path style=" stroke:none;fill-rule:nonzero;fill:rgb(55.294118%,42.352941%,61.960784%);fill-opacity:1;" d="M 33.125 11.25 C 31.398438 11.25 30 12.648438 30 14.375 C 30 16.101562 31.398438 17.5 33.125 17.5 C 34.851562 17.5 36.25 16.101562 36.25 14.375 C 36.25 12.648438 34.851562 11.25 33.125 11.25 Z M 48.125 62.5 C 46.398438 62.5 45 63.898438 45 65.625 C 45 67.351562 46.398438 68.75 48.125 68.75 C 49.851562 68.75 51.25 67.351562 51.25 65.625 C 51.25 63.898438 49.851562 62.5 48.125 62.5 Z M 48.125 62.5 "/>
<path style=" stroke:none;fill-rule:nonzero;fill:rgb(67.45098%,89.019608%,100%);fill-opacity:1;" d="M 5 40 C 5 50.179688 9.773438 53.75 14.703125 53.75 L 22.578125 53.75 C 22.578125 50.296875 19.78125 47.5 16.328125 47.5 L 14.703125 47.5 C 12.15625 47.5 11.25 43.625 11.25 40 C 11.25 36.375 12.15625 32.5 14.691406 32.5 L 35.046875 32.539062 C 35.050781 32.539062 35.054688 32.539062 35.058594 32.539062 C 38.503906 32.539062 41.300781 29.75 41.308594 26.300781 C 41.308594 26.285156 41.304688 26.265625 41.304688 26.25 L 14.703125 26.25 C 9.773438 26.25 5 29.820312 5 40 Z M 5 40 "/>
<path style=" stroke:none;fill-rule:nonzero;fill:rgb(93.72549%,78.431373%,55.686275%);fill-opacity:1;" d="M 75.058594 40 C 75.058594 29.820312 70.285156 26.25 65.355469 26.25 L 57.480469 26.25 C 57.480469 29.703125 60.277344 32.5 63.730469 32.5 L 65.355469 32.5 C 67.902344 32.5 68.808594 36.375 68.808594 40 C 68.808594 43.625 67.902344 47.5 65.367188 47.5 L 45.011719 47.460938 C 45.007812 47.460938 45.003906 47.460938 45 47.460938 C 41.554688 47.460938 38.757812 50.25 38.75 53.699219 C 38.75 53.714844 38.753906 53.734375 38.753906 53.75 L 65.355469 53.75 C 70.285156 53.75 75.058594 50.179688 75.058594 40 Z M 75.058594 40 "/>
<path style=" stroke:none;fill-rule:nonzero;fill:rgb(55.294118%,42.352941%,62.352941%);fill-opacity:1;" d="M 25 55 L 14.703125 55 C 12.136719 55 3.75 53.917969 3.75 40 C 3.75 26.082031 12.136719 25 14.703125 25 L 38.75 25 L 38.75 22.5 L 22.5 22.5 L 22.5 14.703125 C 22.5 10.914062 26.15625 3.75 40 3.75 C 53.816406 3.75 57.5 10.636719 57.5 14.703125 L 57.5 33.636719 C 57.5 37.765625 53.859375 41.25 49.546875 41.25 L 30.453125 41.25 C 27.546875 41.25 25 43.640625 25 46.363281 Z M 14.703125 27.5 C 9.332031 27.5 6.25 32.054688 6.25 40 C 6.25 47.945312 9.332031 52.5 14.703125 52.5 L 22.5 52.5 L 22.5 46.363281 C 22.5 42.234375 26.140625 38.75 30.453125 38.75 L 49.546875 38.75 C 52.453125 38.75 55 36.359375 55 33.636719 L 55 14.703125 C 55 11.5625 51.839844 6.25 40 6.25 C 28.136719 6.25 25 11.78125 25 14.703125 L 25 20 L 41.25 20 L 41.25 27.5 Z M 14.703125 27.5 "/>
<path style=" stroke:none;fill-rule:nonzero;fill:rgb(55.294118%,42.352941%,61.960784%);fill-opacity:1;" d="M 40 76.25 C 26.15625 76.25 22.5 69.085938 22.5 65.296875 L 22.5 46.363281 C 22.5 42.234375 26.140625 38.75 30.453125 38.75 L 49.546875 38.75 C 52.453125 38.75 55 36.359375 55 33.636719 L 55 25 L 65.296875 25 C 67.863281 25 76.25 26.082031 76.25 40 C 76.25 53.917969 67.863281 55 65.296875 55 L 41.25 55 L 41.25 57.5 L 57.5 57.5 L 57.5 65.296875 C 57.5 69.085938 53.84375 76.25 40 76.25 Z M 30.453125 41.25 C 27.546875 41.25 25 43.640625 25 46.363281 L 25 65.296875 C 25 68.21875 28.136719 73.75 40 73.75 C 51.863281 73.75 55 68.21875 55 65.296875 L 55 60 L 38.75 60 L 38.75 52.5 L 65.296875 52.5 C 70.667969 52.5 73.75 47.945312 73.75 40 C 73.75 32.054688 70.667969 27.5 65.296875 27.5 L 57.5 27.5 L 57.5 33.636719 C 57.5 37.765625 53.859375 41.25 49.546875 41.25 Z M 30.453125 41.25 "/>
<path style=" stroke:none;fill-rule:nonzero;fill:rgb(55.294118%,42.352941%,62.352941%);fill-opacity:1;" d="M 47.066406 50 C 46.375 50 45.816406 49.441406 45.816406 48.75 L 45.816406 46.25 C 45.816406 45.558594 46.375 45 47.066406 45 C 47.757812 45 48.316406 45.558594 48.316406 46.25 L 48.316406 48.75 C 48.316406 49.441406 47.757812 50 47.066406 50 Z M 52.773438 50 C 52.082031 50 51.523438 49.441406 51.523438 48.75 L 51.523438 46.25 C 51.523438 45.558594 52.082031 45 52.773438 45 C 53.464844 45 54.023438 45.558594 54.023438 46.25 L 54.023438 48.75 C 54.023438 49.441406 53.464844 50 52.773438 50 Z M 58.476562 50 C 57.785156 50 57.226562 49.441406 57.226562 48.75 L 57.226562 46.25 C 57.226562 45.558594 57.785156 45 58.476562 45 C 59.167969 45 59.726562 45.558594 59.726562 46.25 L 59.726562 48.75 C 59.726562 49.441406 59.167969 50 58.476562 50 Z M 64.183594 50 C 63.492188 50 62.933594 49.441406 62.933594 48.75 L 62.933594 46.25 C 62.933594 45.558594 63.492188 45 64.183594 45 C 64.875 45 65.433594 45.558594 65.433594 46.25 L 65.433594 48.75 C 65.433594 49.441406 64.875 50 64.183594 50 Z M 64.183594 50 "/>
<path style=" stroke:none;fill-rule:nonzero;fill:rgb(55.294118%,42.352941%,62.352941%);fill-opacity:1;" d="M 19.566406 35.105469 C 18.875 35.105469 18.316406 34.542969 18.316406 33.855469 L 18.316406 31.355469 C 18.316406 30.664062 18.875 30.105469 19.566406 30.105469 C 20.253906 30.105469 20.816406 30.664062 20.816406 31.355469 L 20.816406 33.855469 C 20.816406 34.546875 20.257812 35.105469 19.566406 35.105469 Z M 25.269531 35.105469 C 24.582031 35.105469 24.019531 34.542969 24.019531 33.855469 L 24.019531 31.355469 C 24.019531 30.664062 24.582031 30.105469 25.269531 30.105469 C 25.960938 30.105469 26.519531 30.664062 26.519531 31.355469 L 26.519531 33.855469 C 26.519531 34.546875 25.960938 35.105469 25.269531 35.105469 Z M 30.980469 35.105469 C 30.289062 35.105469 29.730469 34.542969 29.730469 33.855469 L 29.730469 31.355469 C 29.730469 30.664062 30.289062 30.105469 30.980469 30.105469 C 31.667969 30.105469 32.230469 30.664062 32.230469 31.355469 L 32.230469 33.855469 C 32.230469 34.546875 31.667969 35.105469 30.980469 35.105469 Z M 36.683594 35.105469 C 35.996094 35.105469 35.433594 34.542969 35.433594 33.855469 L 35.433594 31.355469 C 35.433594 30.664062 35.996094 30.105469 36.683594 30.105469 C 37.375 30.105469 37.933594 30.664062 37.933594 31.355469 L 37.933594 33.855469 C 37.933594 34.546875 37.375 35.105469 36.683594 35.105469 Z M 36.683594 35.105469 "/>
</g>
</svg>
