<?xml version="1.0" encoding="UTF-8"?>
<svg version="1.1" viewBox="0 0 100 100" xml:space="preserve" xmlns="http://www.w3.org/2000/svg" xmlns:cc="http://creativecommons.org/ns#" xmlns:dc="http://purl.org/dc/elements/1.1/" xmlns:rdf="http://www.w3.org/1999/02/22-rdf-syntax-ns#"><metadata><rdf:RDF><cc:Work rdf:about=""><dc:format>image/svg+xml</dc:format><dc:type rdf:resource="http://purl.org/dc/dcmitype/StillImage"/><dc:title/></cc:Work></rdf:RDF></metadata>
<style type="text/css">
	.st0{fill:#FFFFFF;stroke:#000000;stroke-width:5;stroke-miterlimit:10;}
</style>
<g transform="matrix(1.0101 0 0 1.0101 -.50582 -.50582)"><circle transform="scale(1,-1)" cx="50" cy="-50" r="49.499" style="fill:#214478;paint-order:fill markers stroke"/><g transform="scale(1.1829 .84539)" style="fill:#fff;" aria-label="ND"><path d="m35.407 72.431h0.58403v-34.166q0-1.1681-0.58403-1.7521-0.58403-0.58403-2.0441-0.58403h-2.3361v-1.7521h11.681v1.7521h-2.3361q-1.1681 0-2.0441 0.58403-0.58403 0.58403-0.58403 1.7521v45.846h-1.7521l-22.193-43.51h-0.58403v39.422q0 1.1681 0.58403 1.7521 0.87605 0.58403 2.0441 0.58403h2.3361v1.7521h-11.681v-1.7521h2.3361q1.4601 0 2.0441-0.58403 0.58403-0.58403 0.58403-1.7521v-41.758q0-1.1681-0.58403-1.7521-0.58403-0.58403-2.0441-0.58403h-1.7521v-1.7521h8.4684z" style="fill:#fff;"/><path d="m72.493 58.706q0-12.557-3.7962-17.521-3.7962-5.2563-10.513-5.2563-2.0441 0-3.2122 0.58403-0.87605 0.58403-0.87605 1.7521v41.758q0 1.1681 0.87605 1.7521 0.87605 0.58403 2.3361 0.58403 6.4243 0 10.805-4.6722 4.3802-4.9643 4.3802-18.981zm-23.069-20.441q0-1.1681-0.58403-1.7521-0.58403-0.58403-2.0441-0.58403h-1.7521v-1.7521h13.141q9.0525 0 14.309 5.8403 5.5483 5.8403 5.5483 18.105 0 13.433-5.2563 19.857-5.2563 6.1323-15.477 6.1323h-12.557v-1.7521h2.0441q1.4601 0 2.0441-0.58403 0.58403-0.58403 0.58403-1.7521z" style="fill:#fff;"/></g></g></svg>
