<?xml version="1.0" encoding="utf-8"?>
<!-- Generator: Adobe Illustrator 19.2.0, SVG Export Plug-In . SVG Version: 6.00 Build 0)  -->
<svg version="1.1"
	 id="Layer_1" xmlns:cc="http://creativecommons.org/ns#" xmlns:dc="http://purl.org/dc/elements/1.1/" xmlns:rdf="http://www.w3.org/1999/02/22-rdf-syntax-ns#"
	 xmlns="http://www.w3.org/2000/svg" xmlns:xlink="http://www.w3.org/1999/xlink" x="0px" y="0px" viewBox="0 0 100 100"
	 style="enable-background:new 0 0 100 100;" xml:space="preserve">
<style type="text/css">
	.st0{fill:#FFFFFF;}
</style>
<g transform="matrix(1.0101 0 0 1.0101 -.50582 -.50582)">
	<circle cx="50" cy="50" r="49.5"/>
	<g>
		<path class="st0" d="M18.1,70.8V29.2h7.1L39.9,57V29.2h6.7v41.6h-7.3L24.9,43.7v27.1H18.1z"/>
		<path class="st0" d="M54.3,29.2h13.3c3,0,5.3,0.3,6.8,0.8c2.1,0.7,3.9,2,5.4,3.8s2.6,4.1,3.4,6.7c0.8,2.7,1.2,5.9,1.2,9.8
			c0,3.4-0.4,6.4-1.1,8.9c-0.9,3-2.2,5.5-3.9,7.4c-1.3,1.4-3,2.5-5.1,3.3c-1.6,0.6-3.7,0.9-6.4,0.9H54.3V29.2z M61.6,36.2v27.6H67
			c2,0,3.5-0.1,4.4-0.4c1.2-0.3,2.2-0.9,2.9-1.7c0.8-0.8,1.4-2.2,1.9-4c0.5-1.9,0.7-4.4,0.7-7.6c0-3.2-0.2-5.7-0.7-7.4
			c-0.5-1.7-1.2-3.1-2.1-4s-2-1.6-3.4-2c-1-0.3-3-0.4-6-0.4H61.6z"/>
	</g>
</g>
</svg>
