<?xml version="1.0" encoding="UTF-8" standalone="no"?>
<svg
   xmlns:dc="http://purl.org/dc/elements/1.1/"
   xmlns:cc="http://creativecommons.org/ns#"
   xmlns:rdf="http://www.w3.org/1999/02/22-rdf-syntax-ns#"
   xmlns:svg="http://www.w3.org/2000/svg"
   xmlns="http://www.w3.org/2000/svg"
   xmlns:sodipodi="http://sodipodi.sourceforge.net/DTD/sodipodi-0.dtd"
   xmlns:inkscape="http://www.inkscape.org/namespaces/inkscape"
   width="100pt"
   height="100pt"
   viewBox="0 0 27.306667 27.289377"
   version="1.1"
   id="svg4"
   sodipodi:docname="expressjs.svg"
   inkscape:version="0.92.4 (5da689c313, 2019-01-14)">
  <metadata
     id="metadata10">
    <rdf:RDF>
      <cc:Work
         rdf:about="">
        <dc:format>image/svg+xml</dc:format>
        <dc:type
           rdf:resource="http://purl.org/dc/dcmitype/StillImage" />
        <dc:title></dc:title>
      </cc:Work>
    </rdf:RDF>
  </metadata>
  <defs
     id="defs8" />
  <sodipodi:namedview
     pagecolor="#ffffff"
     bordercolor="#666666"
     borderopacity="1"
     objecttolerance="10"
     gridtolerance="10"
     guidetolerance="10"
     inkscape:pageopacity="0"
     inkscape:pageshadow="2"
     inkscape:window-width="1600"
     inkscape:window-height="877"
     id="namedview6"
     showgrid="false"
     units="pt"
     inkscape:document-units="pt"
     inkscape:zoom="3.6352"
     inkscape:cx="67.949723"
     inkscape:cy="54.74224"
     inkscape:window-x="-8"
     inkscape:window-y="90"
     inkscape:window-maximized="1"
     inkscape:current-layer="svg4" />
  <path
     d="M 2.8728334,15.41478 V 12.983591 H 5.9083108 V 12.841383 H 2.8728334 V 10.623441 H 6.1002255 V 10.481276 H 2.730668 v 5.07567 H 6.1286415 V 15.41478 H 2.872876 Z M 8.8655803,11.903015 7.6073402,13.559378 6.3774735,11.903057 h -0.184832 l 1.3293654,1.762987 -1.4573654,1.890859 h 0.170624 l 1.3719894,-1.78432 1.3791147,1.78432 H 9.1640763 L 7.6996709,13.665959 9.036119,11.902972 H 8.8655376 Z m 0.7250774,4.905088 V 14.53333 h 0.014208 c 0.085333,0.331733 0.253568,0.598314 0.5047463,0.799744 0.251179,0.201386 0.571051,0.302122 0.959659,0.302122 0.251179,0 0.473941,-0.05094 0.668246,-0.152832 0.194304,-0.101888 0.356608,-0.240512 0.486954,-0.415872 0.130304,-0.17536 0.229846,-0.379136 0.298582,-0.61137 0.06869,-0.232192 0.103082,-0.476288 0.103082,-0.73216 0,-0.274902 -0.03558,-0.52847 -0.106666,-0.760662 -0.07108,-0.232235 -0.174166,-0.433664 -0.309206,-0.604245 -0.135082,-0.170624 -0.298581,-0.30336 -0.490538,-0.39808 -0.191915,-0.09481 -0.408747,-0.142208 -0.650454,-0.142208 -0.184832,0 -0.356608,0.02726 -0.515371,0.08175 -0.158762,0.05453 -0.299733,0.131499 -0.422954,0.23104 A 1.5647574,1.5647574 0 0 0 9.811031,12.482428 C 9.721004,12.617511 9.6522683,12.765607 9.6048657,12.926759 H 9.5906577 V 11.903015 H 9.4484923 v 4.905088 z m 1.4786133,-1.308032 c -0.44544,0 -0.803285,-0.152832 -1.073408,-0.458496 -0.2701226,-0.305664 -0.4052053,-0.745259 -0.4052053,-1.318699 0,-0.23697 0.033195,-0.46208 0.099541,-0.675328 0.066347,-0.213248 0.162304,-0.400469 0.287872,-0.561579 0.1256103,-0.161152 0.2808323,-0.289109 0.4656213,-0.383872 0.184832,-0.0948 0.393387,-0.142208 0.625579,-0.142208 0.236971,0 0.444331,0.0474 0.622037,0.142208 0.177707,0.09476 0.324651,0.223915 0.440747,0.387414 0.116096,0.163498 0.203776,0.35072 0.26304,0.561578 0.05922,0.210902 0.08883,0.434817 0.08883,0.671787 0,0.213291 -0.02722,0.425387 -0.08175,0.636246 -0.05448,0.210901 -0.138624,0.400469 -0.252373,0.568746 -0.113707,0.168192 -0.259414,0.305622 -0.437163,0.412288 -0.177749,0.106624 -0.392192,0.159915 -0.643371,0.159915 z m 2.338816,0.05688 V 13.4883 c 0,-0.19904 0.02842,-0.393387 0.08533,-0.582912 0.05683,-0.189568 0.144512,-0.356651 0.262997,-0.501163 0.118485,-0.144555 0.268928,-0.258304 0.451413,-0.341248 0.182443,-0.08294 0.399275,-0.117291 0.650454,-0.103083 v -0.142165 c -0.218027,-0.0047 -0.408747,0.01894 -0.572246,0.07108 -0.163541,0.05214 -0.304512,0.123221 -0.422997,0.21329 -0.118485,0.09003 -0.213248,0.195456 -0.284331,0.316331 a 1.4144001,1.4144001 0 0 0 -0.156416,0.387413 h -0.01421 v -0.902826 h -0.142165 v 3.653973 h 0.142165 z m 1.627904,-1.798528 h 3.056768 c 0.0095,-0.251179 -0.01536,-0.492843 -0.07462,-0.725078 -0.05922,-0.232235 -0.154026,-0.4384 -0.28433,-0.618453 -0.130347,-0.180096 -0.298582,-0.324651 -0.504747,-0.433664 -0.206165,-0.109014 -0.451413,-0.163499 -0.735744,-0.163499 -0.203819,0 -0.402859,0.04267 -0.597163,0.128 -0.194304,0.08529 -0.364928,0.209664 -0.511829,0.373163 -0.146901,0.163498 -0.265387,0.363733 -0.355413,0.600746 -0.09003,0.236928 -0.135083,0.507051 -0.135083,0.810369 0,0.270122 0.03081,0.522496 0.09242,0.757077 0.06161,0.234581 0.156373,0.4384 0.284331,0.611371 0.128,0.17297 0.292693,0.306858 0.49408,0.401621 0.201386,0.09481 0.444288,0.139819 0.728661,0.135083 0.417024,0 0.767744,-0.117334 1.052075,-0.351872 0.284373,-0.234624 0.452608,-0.565163 0.504746,-0.991702 h -0.142165 c -0.06161,0.402859 -0.219221,0.704982 -0.472747,0.906368 -0.253568,0.20143 -0.572245,0.302123 -0.95616,0.302123 -0.26065,0 -0.481024,-0.04501 -0.66112,-0.13504 -0.180053,-0.09003 -0.326997,-0.213291 -0.440746,-0.369664 -0.113707,-0.156416 -0.197846,-0.340053 -0.252331,-0.550955 -0.05453,-0.210858 -0.08414,-0.439552 -0.08887,-0.685994 z m 2.914603,-0.142166 h -2.91456 c 0.01417,-0.255915 0.06157,-0.48576 0.142123,-0.689536 0.0806,-0.203819 0.186026,-0.377984 0.316373,-0.522496 0.130304,-0.144555 0.281984,-0.25472 0.454955,-0.330581 0.17297,-0.07582 0.358997,-0.11375 0.558037,-0.11375 0.236971,0 0.44544,0.04386 0.625579,0.131542 0.180053,0.08768 0.330538,0.20736 0.451413,0.358997 0.120832,0.151637 0.212053,0.328192 0.273664,0.529579 0.06161,0.201429 0.09242,0.413525 0.09242,0.636245 z m 3.092352,-0.632661 h 0.142166 c 0,-0.407595 -0.118486,-0.703787 -0.355414,-0.888619 -0.237013,-0.184832 -0.559274,-0.277248 -0.966826,-0.277248 -0.227499,0 -0.419414,0.02846 -0.57583,0.08533 -0.156373,0.05683 -0.284331,0.130304 -0.383872,0.220331 -0.0995,0.09003 -0.170581,0.189568 -0.213248,0.298581 -0.04267,0.109014 -0.064,0.213291 -0.064,0.31279 0,0.19904 0.03554,0.357802 0.106667,0.476288 0.07108,0.118485 0.182442,0.210901 0.33408,0.277248 0.104277,0.04736 0.22272,0.09003 0.355456,0.128 0.132693,0.03789 0.28672,0.07817 0.46208,0.120789 0.156373,0.03797 0.3104,0.07586 0.46208,0.11375 0.151637,0.03793 0.285525,0.08887 0.401621,0.152832 0.116139,0.064 0.210902,0.145749 0.284374,0.24529 0.07343,0.0995 0.110165,0.229846 0.110165,0.390955 0,0.156416 -0.03669,0.289109 -0.110165,0.39808 a 0.88810671,0.88810671 0 0 1 -0.28079,0.266624 c -0.113749,0.06869 -0.240554,0.118443 -0.38033,0.149248 -0.139819,0.03081 -0.276054,0.04621 -0.408747,0.04621 -0.431275,0 -0.761856,-0.09596 -0.991702,-0.287872 -0.229845,-0.191957 -0.344746,-0.49408 -0.344746,-0.906411 h -0.142208 c 0,0.459734 0.124416,0.796203 0.373205,1.009494 0.248832,0.213248 0.617302,0.319872 1.105451,0.319872 0.156373,0 0.313941,-0.01779 0.472747,-0.05333 0.15872,-0.03554 0.300928,-0.09357 0.426496,-0.174165 a 0.96392538,0.96392538 0 0 0 0.305664,-0.312747 c 0.07821,-0.128 0.117333,-0.284373 0.117333,-0.469205 0,-0.17536 -0.03439,-0.317525 -0.103083,-0.426539 -0.06874,-0.10897 -0.158762,-0.19904 -0.270165,-0.270122 -0.11136,-0.07108 -0.236928,-0.126763 -0.376747,-0.16704 a 22.019414,22.019414 0 0 0 -0.422997,-0.117334 73.67147,73.67147 0 0 0 -0.522496,-0.13504 c -0.149248,-0.03793 -0.287872,-0.08294 -0.41583,-0.135083 -0.123221,-0.05214 -0.221568,-0.126762 -0.29504,-0.223914 -0.07347,-0.09715 -0.110165,-0.235776 -0.110165,-0.415872 0,-0.03315 0.0095,-0.09242 0.02842,-0.177707 0.01894,-0.08533 0.064,-0.171819 0.135083,-0.259499 0.07108,-0.08764 0.180053,-0.165845 0.326997,-0.234581 0.146902,-0.06869 0.348331,-0.103083 0.604246,-0.103083 0.17536,0 0.335274,0.01899 0.479829,0.05688 0.144555,0.03793 0.268971,0.09835 0.373205,0.181291 0.104278,0.08294 0.184832,0.188373 0.241707,0.31633 0.05687,0.128 0.08533,0.284374 0.08533,0.469206 z m 3.29135,0 h 0.142165 c 0,-0.407595 -0.118443,-0.703787 -0.355413,-0.888619 -0.236971,-0.184832 -0.559232,-0.277248 -0.966827,-0.277248 -0.227456,0 -0.419413,0.02846 -0.575787,0.08533 -0.156416,0.05683 -0.284373,0.130304 -0.383872,0.220331 -0.09954,0.09003 -0.170624,0.189568 -0.21329,0.298581 -0.04267,0.109014 -0.06396,0.213291 -0.06396,0.31279 0,0.19904 0.03554,0.357802 0.106667,0.476288 0.07104,0.118485 0.182443,0.210901 0.33408,0.277248 0.104277,0.04736 0.22272,0.09003 0.355413,0.128 0.132694,0.03789 0.28672,0.07817 0.46208,0.120789 0.156416,0.03797 0.310443,0.07586 0.46208,0.11375 0.15168,0.03793 0.285526,0.08887 0.401664,0.152832 0.116096,0.064 0.210902,0.145749 0.284331,0.24529 0.07347,0.0995 0.110208,0.229846 0.110208,0.390955 0,0.156416 -0.03674,0.289109 -0.110208,0.39808 a 0.88810671,0.88810671 0 0 1 -0.280747,0.266624 c -0.113792,0.06869 -0.240554,0.118443 -0.380373,0.149248 -0.139776,0.03081 -0.276053,0.04621 -0.408747,0.04621 -0.431274,0 -0.761813,-0.09596 -0.991658,-0.287872 -0.229888,-0.191957 -0.34479,-0.49408 -0.34479,-0.906411 h -0.142165 c 0,0.459734 0.124373,0.796203 0.373205,1.009494 0.24879,0.213248 0.617259,0.319872 1.105408,0.319872 0.156416,0 0.313984,-0.01779 0.472747,-0.05333 0.15872,-0.03554 0.300928,-0.09357 0.426539,-0.174165 a 0.96392538,0.96392538 0 0 0 0.305664,-0.312747 c 0.07821,-0.128 0.11729,-0.284373 0.11729,-0.469205 0,-0.17536 -0.03435,-0.317525 -0.103082,-0.426539 -0.06869,-0.10897 -0.15872,-0.19904 -0.270123,-0.270122 -0.11136,-0.07108 -0.236971,-0.126763 -0.376747,-0.16704 a 22.01903,22.01903 0 0 0 -0.422997,-0.117334 73.670404,73.670404 0 0 0 -0.522496,-0.13504 c -0.149291,-0.03793 -0.287915,-0.08294 -0.415872,-0.135083 -0.123221,-0.05214 -0.221568,-0.126762 -0.294997,-0.223914 -0.07347,-0.09715 -0.110208,-0.235776 -0.110208,-0.415872 0,-0.03315 0.0095,-0.09242 0.02846,-0.177707 0.01894,-0.08533 0.064,-0.171819 0.13504,-0.259499 0.07108,-0.08764 0.180096,-0.165845 0.326998,-0.234581 0.146944,-0.06869 0.34833,-0.103083 0.604288,-0.103083 0.17536,0 0.335274,0.01899 0.479829,0.05688 0.144555,0.03793 0.268928,0.09835 0.373205,0.181291 0.104278,0.08294 0.184832,0.188373 0.241707,0.31633 0.05688,0.128 0.08533,0.284374 0.08533,0.469206 z"
     id="path2"
     inkscape:connector-curvature="0"
     style="fill:#222222;stroke-width:0.04266667" />
</svg>
