<?xml version="1.0" encoding="UTF-8" standalone="no"?>
<svg
   xmlns:dc="http://purl.org/dc/elements/1.1/"
   xmlns:cc="http://creativecommons.org/ns#"
   xmlns:rdf="http://www.w3.org/1999/02/22-rdf-syntax-ns#"
   xmlns:svg="http://www.w3.org/2000/svg"
   xmlns="http://www.w3.org/2000/svg"
   xmlns:sodipodi="http://sodipodi.sourceforge.net/DTD/sodipodi-0.dtd"
   xmlns:inkscape="http://www.inkscape.org/namespaces/inkscape"
   width="100pt"
   height="100pt"
   viewBox="0 0 100 100"
   version="1.1"
   id="svg5"
   sodipodi:docname="github.svg"
   style="fill:#000000"
   inkscape:version="0.92.4 (5da689c313, 2019-01-14)">
  <metadata
     id="metadata11">
    <rdf:RDF>
      <cc:Work
         rdf:about="">
        <dc:format>image/svg+xml</dc:format>
        <dc:type
           rdf:resource="http://purl.org/dc/dcmitype/StillImage" />
        <dc:title></dc:title>
      </cc:Work>
    </rdf:RDF>
  </metadata>
  <defs
     id="defs9" />
  <sodipodi:namedview
     pagecolor="#ffffff"
     bordercolor="#666666"
     borderopacity="1"
     objecttolerance="10"
     gridtolerance="10"
     guidetolerance="10"
     inkscape:pageopacity="0"
     inkscape:pageshadow="2"
     inkscape:window-width="1600"
     inkscape:window-height="877"
     id="namedview7"
     showgrid="false"
     inkscape:document-units="pt"
     inkscape:zoom="2.2125"
     inkscape:cx="53.333333"
     inkscape:cy="53.333333"
     inkscape:window-x="-8"
     inkscape:window-y="90"
     inkscape:window-maximized="1"
     inkscape:current-layer="svg5" />
  <g
     id="surface177135"
     transform="matrix(1.3670562,0,0,1.3670562,-4.682248,-3.6705633)">
    <path
       style="fill:#000000;fill-opacity:1;fill-rule:evenodd;stroke:none"
       d="M 39.996094,10 C 23.433594,10 10,23.433594 10,40.003906 c 0,13.25 8.59375,24.496094 20.515625,28.464844 1.5,0.273438 2.050781,-0.652344 2.050781,-1.445312 0,-0.714844 -0.02734,-2.601563 -0.04297,-5.101563 -8.34375,1.8125 -10.101563,-4.023437 -10.101563,-4.023437 -1.367187,-3.464844 -3.332031,-4.386719 -3.332031,-4.386719 -2.726563,-1.863281 0.207031,-1.824219 0.207031,-1.824219 3.007813,0.210938 4.59375,3.09375 4.59375,3.09375 2.675781,4.582031 7.023437,3.257812 8.730469,2.492188 0.269531,-1.9375 1.046875,-3.261719 1.902344,-4.011719 -6.660157,-0.757813 -13.664063,-3.328125 -13.664063,-14.828125 0,-3.273438 1.171875,-5.949219 3.089844,-8.046875 -0.308594,-0.761719 -1.339844,-3.8125 0.292969,-7.941407 0,0 2.519531,-0.808593 8.25,3.074219 2.394531,-0.664062 4.960937,-0.996093 7.511718,-1.007812 2.546875,0.01172 5.113282,0.34375 7.507813,1.007812 5.726562,-3.882812 8.242187,-3.074219 8.242187,-3.074219 1.636719,4.128907 0.609375,7.179688 0.296875,7.941407 1.925781,2.097656 3.085938,4.773437 3.085938,8.046875 0,11.527344 -7.015625,14.0625 -13.699219,14.804687 1.078125,0.925781 2.039062,2.757813 2.039062,5.554688 0,4.007812 -0.03906,7.246093 -0.03906,8.230469 0,0.800781 0.539062,1.734374 2.0625,1.441406 C 61.414062,64.488281 70,53.253906 70,40.003906 70,23.433594 56.566406,10 39.996094,10 Z m 0,0"
       id="path2"
       inkscape:connector-curvature="0" />
  </g>
</svg>
