<?xml version="1.0" encoding="UTF-8" standalone="no"?>
<svg
   xmlns:dc="http://purl.org/dc/elements/1.1/"
   xmlns:cc="http://creativecommons.org/ns#"
   xmlns:rdf="http://www.w3.org/1999/02/22-rdf-syntax-ns#"
   xmlns:svg="http://www.w3.org/2000/svg"
   xmlns="http://www.w3.org/2000/svg"
   xmlns:sodipodi="http://sodipodi.sourceforge.net/DTD/sodipodi-0.dtd"
   xmlns:inkscape="http://www.inkscape.org/namespaces/inkscape"
   width="100pt"
   height="100pt"
   viewBox="0 0 13.653333 13.652987"
   preserveAspectRatio="xMinYMin meet"
   version="1.1"
   id="svg6"
   sodipodi:docname="mysql.svg"
   inkscape:version="0.92.4 (5da689c313, 2019-01-14)">
  <metadata
     id="metadata12">
    <rdf:RDF>
      <cc:Work
         rdf:about="">
        <dc:format>image/svg+xml</dc:format>
        <dc:type
           rdf:resource="http://purl.org/dc/dcmitype/StillImage" />
        <dc:title></dc:title>
      </cc:Work>
    </rdf:RDF>
  </metadata>
  <defs
     id="defs10" />
  <sodipodi:namedview
     pagecolor="#ffffff"
     bordercolor="#666666"
     borderopacity="1"
     objecttolerance="10"
     gridtolerance="10"
     guidetolerance="10"
     inkscape:pageopacity="0"
     inkscape:pageshadow="2"
     inkscape:window-width="1920"
     inkscape:window-height="1017"
     id="namedview8"
     showgrid="false"
     inkscape:document-units="pt"
     units="pt"
     inkscape:zoom="2.1698783"
     inkscape:cx="116.53618"
     inkscape:cy="24.266959"
     inkscape:window-x="1592"
     inkscape:window-y="-8"
     inkscape:window-maximized="1"
     inkscape:current-layer="svg6" />
  <g
     id="g824"
     transform="translate(1.2387082,-0.46292958)">
    <path
       style="fill:#00546b;stroke-width:0.04349859"
       inkscape:connector-curvature="0"
       id="path2"
       d="m 10.273662,10.276208 c -0.605413,-0.01509 -1.0746324,0.04546 -1.4681641,0.211925 -0.1135313,0.04537 -0.2951815,0.04541 -0.310319,0.189219 0.06055,0.06055 0.068119,0.158944 0.1211001,0.242156 0.090912,0.151332 0.2497254,0.355688 0.3935318,0.461694 0.1589003,0.121057 0.3178877,0.242114 0.4843133,0.348076 0.2951814,0.18165 0.6282069,0.287569 0.9157759,0.469219 0.166556,0.105876 0.332938,0.242201 0.499451,0.355688 0.08326,0.06046 0.136194,0.158944 0.2422,0.196745 v -0.02266 c -0.05302,-0.06816 -0.06816,-0.166513 -0.1211,-0.2422 -0.0756,-0.07569 -0.151375,-0.143807 -0.227063,-0.219494 -0.21945,-0.295095 -0.491882,-0.552432 -0.78702,-0.764314 -0.2421565,-0.166513 -0.7719693,-0.393532 -0.8703196,-0.673576 0,0 -0.00761,-0.0075 -0.015137,-0.01509 0.1664691,-0.01514 0.3632132,-0.07569 0.5222005,-0.1211 0.2572942,-0.06816 0.4918831,-0.05298 0.7567891,-0.1211 0.121057,-0.03027 0.242157,-0.06812 0.363213,-0.105962 v -0.06808 C 10.636963,10.261114 10.538569,10.079507 10.394762,9.9508382 10.008799,9.6177695 9.5849491,9.2924 9.1460484,9.0199683 8.911417,8.8685932 8.6086668,8.7701994 8.3589414,8.6415741 8.2682033,8.596118 8.1167847,8.5734553 8.0638469,8.4977677 7.9275658,8.3312986 7.8518783,8.1118482 7.753528,7.9150606 7.5341211,7.4987791 7.3221524,7.037172 7.1329336,6.5982712 6.996783,6.3030898 6.9135267,6.0079084 6.7470141,5.7355202 5.9675193,4.4489623 5.1199057,3.6694676 3.8182539,2.9050668 3.53821,2.7461665 3.2052282,2.6780477 2.8495403,2.5948349 2.6604084,2.5872226 2.471146,2.5721286 2.2819706,2.5645164 2.1608706,2.5115351 2.0397705,2.3677722 1.9338079,2.2996535 1.5025194,2.0271783 0.38995591,1.4369459 0.07211171,2.2164406 -0.13224467,2.7083227 0.3748619,3.192636 0.54885627,3.4424484 0.6776121,3.6164863 0.84403771,3.8132304 0.93486277,4.0100181 0.98784407,4.1385999 1.0029381,4.2749245 1.0559193,4.4111186 1.1770629,4.7440133 1.2905073,5.1149258 1.4494946,5.4252447 1.5327506,5.5841451 1.6235325,5.7506142 1.729495,5.8944205 1.790045,5.9776335 1.8959641,6.0155206 1.9187139,6.1517147 1.8127948,6.3030898 1.8051826,6.5301525 1.744589,6.7193278 1.4721574,7.5745101 1.5781634,8.6340053 1.9640829,9.262125 2.0851395,9.4512569 2.3727522,9.8676254 2.7587152,9.708638 3.0993092,9.5724439 3.0236216,9.1410684 3.1219284,8.7626742 3.1447217,8.6717621 3.1295842,8.6112991 3.1749532,8.550749 V 8.56593 c 0.1059626,0.2118382 0.2118817,0.416238 0.3102755,0.6281197 0.2346314,0.370782 0.6432571,0.7567885 0.9838076,1.0141263 0.1816936,0.13615 0.3254565,0.370782 0.5525191,0.454038 v -0.02275 H 5.0063744 C 4.9609619,10.571346 4.8928431,10.541114 4.8323366,10.488089 4.6961425,10.351939 4.5447239,10.185426 4.4388048,10.034051 4.1210041,9.6102007 3.8409167,9.1410249 3.5911912,8.6566681 3.4701347,8.4221237 3.3641286,8.164786 3.2657783,7.9301981 3.2203223,7.8392861 3.2203223,7.7031355 3.1446782,7.6577664 3.0311469,7.8242355 2.8646778,7.9680419 2.7814215,8.1723548 2.6377021,8.4977677 2.6225211,8.8988682 2.5695398,9.3150628 c -0.030275,0.00766 -0.015181,0 -0.030318,0.015225 C 2.2971082,9.2696502 2.2138519,9.0199683 2.1229833,8.8080432 1.8959206,8.2707486 1.8580769,7.4079975 2.054908,6.7874466 2.1078893,6.6285028 2.3349519,6.1290519 2.2441269,5.9776768 2.1987143,5.8338705 2.0472957,5.7506142 1.9640829,5.6371264 1.8657326,5.49332 1.7597266,5.3117569 1.6916513,5.1527696 1.5100011,4.7289628 1.4191761,4.2597435 1.222432,3.8359367 1.1316069,3.6391491 0.97275004,3.4348797 0.84403771,3.2532296 0.70027487,3.0489167 0.54133101,2.9050668 0.42779969,2.6629102 0.38999941,2.5796974 0.33697463,2.4434598 0.39752467,2.3526347 c 0.0151375,-0.06055 0.045369,-0.083213 0.10596257,-0.09835 0.0983938,-0.0833 0.37843774,0.022663 0.47674456,0.068075 C 1.2602757,2.435804 1.4948636,2.5418536 1.729495,2.700754 1.8354141,2.776441 1.9489454,2.9202479 2.0851395,2.9580916 h 0.1589439 c 0.2422001,0.052938 0.5145883,0.015138 0.741651,0.083213 0.401144,0.1286254 0.7643572,0.3178442 1.0898137,0.5222006 0.9914199,0.6281197 1.8086714,1.5211458 2.3611905,2.5882097 0.090825,0.1739944 0.1286253,0.3330252 0.2118816,0.5145883 0.1589874,0.370869 0.3557315,0.7492633 0.5145884,1.11252 0.1589438,0.3556445 0.3102754,0.7189447 0.5373381,1.0141262 0.1135313,0.1588568 0.5675696,0.2421566 0.771926,0.3254129 0.1513751,0.068075 0.3860065,0.1286689 0.5222006,0.2118817 0.2572941,0.1588568 0.5145883,0.3405939 0.7567885,0.5145883 0.1211,0.090825 0.4994512,0.2800437 0.5222002,0.4313757 z" />
    <path
       style="fill:#00546b;stroke-width:0.04349859"
       inkscape:connector-curvature="0"
       id="path4"
       d="m 2.5543153,3.6996556 c -0.1286253,0 -0.2194069,0.015224 -0.3102319,0.037887 v 0.015138 h 0.015137 c 0.060593,0.1211001 0.1664691,0.2043564 0.2421131,0.3102754 0.060594,0.1210566 0.1135314,0.2422002 0.1741249,0.3633003 0.00753,-0.00761 0.015094,-0.015137 0.015094,-0.015137 C 2.796559,4.3353875 2.8494968,4.2143309 2.8494968,4.0326808 2.8040842,3.979743 2.7965155,3.9267618 2.7586717,3.8737805 2.7133027,3.7980494 2.6148654,3.7602492 2.5543153,3.6996556 Z" />
  </g>
</svg>
