<?xml version="1.0" encoding="UTF-8" standalone="no"?>
<svg
   xmlns:dc="http://purl.org/dc/elements/1.1/"
   xmlns:cc="http://creativecommons.org/ns#"
   xmlns:rdf="http://www.w3.org/1999/02/22-rdf-syntax-ns#"
   xmlns:svg="http://www.w3.org/2000/svg"
   xmlns="http://www.w3.org/2000/svg"
   xmlns:sodipodi="http://sodipodi.sourceforge.net/DTD/sodipodi-0.dtd"
   xmlns:inkscape="http://www.inkscape.org/namespaces/inkscape"
   width="100pt"
   height="100pt"
   viewBox="0 0 125 125"
   version="1.1"
   id="svg12"
   sodipodi:docname="reactjs.svg"
   inkscape:version="0.92.4 (5da689c313, 2019-01-14)">
  <metadata
     id="metadata18">
    <rdf:RDF>
      <cc:Work
         rdf:about="">
        <dc:format>image/svg+xml</dc:format>
        <dc:type
           rdf:resource="http://purl.org/dc/dcmitype/StillImage" />
        <dc:title></dc:title>
      </cc:Work>
    </rdf:RDF>
  </metadata>
  <defs
     id="defs16" />
  <sodipodi:namedview
     pagecolor="#ffffff"
     bordercolor="#666666"
     borderopacity="1"
     objecttolerance="10"
     gridtolerance="10"
     guidetolerance="10"
     inkscape:pageopacity="0"
     inkscape:pageshadow="2"
     inkscape:window-width="1920"
     inkscape:window-height="1017"
     id="namedview14"
     showgrid="false"
     inkscape:document-units="pt"
     inkscape:zoom="2.2125"
     inkscape:cx="-20.112995"
     inkscape:cy="53.333333"
     inkscape:window-x="1592"
     inkscape:window-y="-8"
     inkscape:window-maximized="1"
     inkscape:current-layer="svg12" />
  <style
     type="text/css"
     id="style2">
	.st0{fill:#61DAFB;}
</style>
  <g
     id="g10"
     transform="matrix(1.0526316,0,0,1.0526316,9.8684224,9.8684224)">
    <path
       class="st0"
       d="M 97.5,50 C 97.5,43.7 89.6,37.7 77.5,34 80.3,21.7 79,11.9 73.6,8.7 72.3,8 70.9,7.6 69.3,7.6 v 4.3 c 0.9,0 1.6,0.2 2.2,0.5 2.6,1.5 3.8,7.3 2.9,14.7 -0.2,1.8 -0.6,3.7 -1,5.7 C 69.6,31.9 65.5,31.2 61.1,30.7 58.5,27.1 55.8,23.9 53,21 59.3,15.1 65.2,11.9 69.3,11.9 V 7.7 C 64,7.7 57,11.5 49.9,18.1 42.9,11.6 35.9,7.8 30.6,7.8 v 4.3 c 4,0 10,3.2 16.3,9 -2.7,2.8 -5.4,6.1 -8,9.7 -4.4,0.5 -8.5,1.2 -12.3,2.1 -0.4,-1.9 -0.8,-3.8 -1,-5.6 -0.9,-7.4 0.2,-13.1 2.8,-14.7 0.6,-0.3 1.3,-0.5 2.2,-0.5 V 7.8 C 29,7.8 27.5,8.1 26.2,8.9 20.8,12 19.5,21.8 22.3,34.1 10.3,37.8 2.5,43.8 2.5,50 c 0,6.3 7.9,12.3 20,16 -2.8,12.3 -1.5,22.1 3.9,25.3 1.3,0.7 2.7,1.1 4.4,1.1 5.3,0 12.3,-3.8 19.3,-10.4 7,6.5 14,10.3 19.3,10.3 1.6,0 3.1,-0.3 4.4,-1.1 C 79.2,88.1 80.5,78.3 77.7,66 89.6,62.3 97.5,56.3 97.5,50 Z M 72.3,37.1 c -0.7,2.5 -1.6,5.1 -2.6,7.6 -0.8,-1.5 -1.6,-3.1 -2.5,-4.6 -0.9,-1.5 -1.8,-3.1 -2.8,-4.5 2.7,0.4 5.3,0.9 7.9,1.5 z m -8.9,20.6 c -1.5,2.6 -3.1,5.1 -4.7,7.4 -2.9,0.3 -5.8,0.4 -8.8,0.4 -2.9,0 -5.8,-0.1 -8.7,-0.4 -1.6,-2.3 -3.2,-4.8 -4.7,-7.4 -1.5,-2.5 -2.8,-5.1 -4,-7.7 1.2,-2.6 2.6,-5.2 4,-7.7 1.5,-2.6 3.1,-5.1 4.7,-7.4 2.9,-0.3 5.8,-0.4 8.8,-0.4 2.9,0 5.8,0.1 8.7,0.4 1.6,2.3 3.2,4.8 4.7,7.4 1.5,2.5 2.8,5.1 4,7.7 -1.2,2.6 -2.5,5.2 -4,7.7 z m 6.3,-2.5 c 1,2.6 1.9,5.2 2.7,7.7 -2.5,0.6 -5.2,1.1 -8,1.5 0.9,-1.5 1.9,-3 2.8,-4.6 0.8,-1.5 1.7,-3 2.5,-4.6 z M 50,75.9 C 48.2,74 46.4,72 44.6,69.7 c 1.7,0.1 3.5,0.1 5.3,0.1 1.8,0 3.6,0 5.4,-0.1 -1.7,2.2 -3.5,4.3 -5.3,6.2 z M 35.6,64.5 c -2.7,-0.4 -5.4,-0.9 -7.9,-1.5 0.7,-2.5 1.6,-5.1 2.6,-7.6 0.8,1.5 1.6,3.1 2.5,4.6 0.9,1.5 1.9,3 2.8,4.5 z M 49.9,24.2 c 1.8,1.9 3.6,3.9 5.4,6.2 -1.7,-0.1 -3.5,-0.1 -5.3,-0.1 -1.8,0 -3.6,0 -5.4,0.1 1.7,-2.3 3.5,-4.4 5.3,-6.2 z M 35.6,35.6 c -0.9,1.5 -1.9,3 -2.8,4.6 -0.9,1.5 -1.7,3.1 -2.5,4.6 -1,-2.6 -1.9,-5.2 -2.7,-7.7 2.6,-0.6 5.2,-1.1 8,-1.5 z M 18.1,59.8 C 11.2,56.9 6.8,53.1 6.8,50 c 0,-3.1 4.4,-6.9 11.3,-9.8 1.7,-0.7 3.5,-1.4 5.4,-2 1.1,3.8 2.6,7.7 4.4,11.8 -1.8,4 -3.2,8 -4.3,11.7 -2,-0.5 -3.8,-1.2 -5.5,-1.9 z M 28.5,87.5 C 25.9,86 24.7,80.2 25.6,72.8 c 0.2,-1.8 0.6,-3.7 1,-5.7 3.8,0.9 7.9,1.6 12.3,2.1 2.6,3.6 5.3,6.8 8.1,9.7 C 40.6,84.8 34.7,88 30.7,88 29.8,88 29.1,87.8 28.5,87.5 Z M 74.4,72.7 c 0.9,7.4 -0.2,13.1 -2.8,14.7 -0.6,0.3 -1.3,0.5 -2.2,0.5 -4,0 -10,-3.2 -16.3,-9 2.7,-2.8 5.4,-6.1 8,-9.7 4.4,-0.5 8.5,-1.2 12.3,-2.1 0.5,2 0.8,3.8 1,5.6 z m 7.5,-12.9 c -1.7,0.7 -3.5,1.4 -5.4,2 C 75.4,58 74,54 72.2,50 c 1.8,-4 3.2,-8 4.3,-11.7 1.9,0.6 3.7,1.3 5.4,2 6.9,2.9 11.3,6.8 11.3,9.8 0,3 -4.5,6.8 -11.3,9.7 z"
       id="path4"
       inkscape:connector-curvature="0"
       style="fill:#61dafb" />
    <circle
       class="st0"
       cx="50"
       cy="50"
       r="8.8000002"
       id="circle6"
       style="fill:#61dafb" />
    <path
       class="st0"
       d="M 69.3,7.7"
       id="path8"
       inkscape:connector-curvature="0"
       style="fill:#61dafb" />
  </g>
</svg>
