<?xml version="1.0" encoding="UTF-8" standalone="no"?>
<svg
   xmlns:dc="http://purl.org/dc/elements/1.1/"
   xmlns:cc="http://creativecommons.org/ns#"
   xmlns:rdf="http://www.w3.org/1999/02/22-rdf-syntax-ns#"
   xmlns:svg="http://www.w3.org/2000/svg"
   xmlns="http://www.w3.org/2000/svg"
   xmlns:sodipodi="http://sodipodi.sourceforge.net/DTD/sodipodi-0.dtd"
   xmlns:inkscape="http://www.inkscape.org/namespaces/inkscape"
   viewBox="0 0 64 64"
   width="100pt"
   height="100pt"
   version="1.1"
   id="svg8"
   sodipodi:docname="webpack.svg"
   inkscape:version="0.92.4 (5da689c313, 2019-01-14)">
  <metadata
     id="metadata14">
    <rdf:RDF>
      <cc:Work
         rdf:about="">
        <dc:format>image/svg+xml</dc:format>
        <dc:type
           rdf:resource="http://purl.org/dc/dcmitype/StillImage" />
        <dc:title></dc:title>
      </cc:Work>
    </rdf:RDF>
  </metadata>
  <defs
     id="defs12" />
  <sodipodi:namedview
     pagecolor="#ffffff"
     bordercolor="#666666"
     borderopacity="1"
     objecttolerance="10"
     gridtolerance="10"
     guidetolerance="10"
     inkscape:pageopacity="0"
     inkscape:pageshadow="2"
     inkscape:window-width="1600"
     inkscape:window-height="877"
     id="namedview10"
     showgrid="false"
     units="pt"
     inkscape:document-units="pt"
     inkscape:zoom="3.0208"
     inkscape:cx="160.42256"
     inkscape:cy="68.727493"
     inkscape:window-x="-8"
     inkscape:window-y="90"
     inkscape:window-maximized="1"
     inkscape:current-layer="svg8" />
  <g
     id="g824"
     transform="matrix(0.04266667,0,0,0.04266667,6.3999992,54.869337)">
    <path
       style="fill:#ffffff"
       inkscape:connector-curvature="0"
       id="path2"
       d="m 600,-1136 530.3,299.99998 v 600 L 600,63.999978 69.7,-236.00002 v -600 z" />
    <path
       style="fill:#8ed6fb"
       inkscape:connector-curvature="0"
       id="path4"
       d="M 1035.6,-256.70002 617.5,-20.200022 V -204.40002 l 260.5,-143.3 z m 28.6,-25.9 v -494.6 l -153,88.3 v 317.9 z m -901.5,25.9 418.1,236.499998 V -204.40002 l -260.5,-143.3 z m -28.6,-25.9 v -494.6 l 153,88.3 v 317.9 z m 17.9,-526.6 L 580.8,-1051.8 v 178.09998 l -274.7,151.1 -2.1,1.2 z m 894.3,0 L 617.5,-1051.8 v 178.09998 l 274.7,151.1 2.1,1.2 z" />
    <path
       style="fill:#1c78c0"
       inkscape:connector-curvature="0"
       id="path6"
       d="m 580.8,-246.30002 -257,-141.3 v -280 l 257,148.4 v 272.9 m 36.7,0 257,-141.3 v -280 l -257,148.4 v 272.9 m -276.3,-453.7 258,-141.9 258,141.9 -258,149 -258,-149" />
  </g>
</svg>
