<?xml version="1.0" encoding="UTF-8" standalone="no"?>
<svg
   xmlns:dc="http://purl.org/dc/elements/1.1/"
   xmlns:cc="http://creativecommons.org/ns#"
   xmlns:rdf="http://www.w3.org/1999/02/22-rdf-syntax-ns#"
   xmlns:svg="http://www.w3.org/2000/svg"
   xmlns="http://www.w3.org/2000/svg"
   xmlns:sodipodi="http://sodipodi.sourceforge.net/DTD/sodipodi-0.dtd"
   xmlns:inkscape="http://www.inkscape.org/namespaces/inkscape"
   width="100pt"
   height="100pt"
   viewBox="0 0 13.653333 13.653333"
   preserveAspectRatio="xMinYMin meet"
   version="1.1"
   id="svg6"
   sodipodi:docname="bootstrap.svg"
   inkscape:version="0.92.4 (5da689c313, 2019-01-14)">
  <metadata
     id="metadata12">
    <rdf:RDF>
      <cc:Work
         rdf:about="">
        <dc:format>image/svg+xml</dc:format>
        <dc:type
           rdf:resource="http://purl.org/dc/dcmitype/StillImage" />
        <dc:title></dc:title>
      </cc:Work>
    </rdf:RDF>
  </metadata>
  <defs
     id="defs10" />
  <sodipodi:namedview
     pagecolor="#ffffff"
     bordercolor="#666666"
     borderopacity="1"
     objecttolerance="10"
     gridtolerance="10"
     guidetolerance="10"
     inkscape:pageopacity="0"
     inkscape:pageshadow="2"
     inkscape:window-width="1600"
     inkscape:window-height="877"
     id="namedview8"
     showgrid="false"
     inkscape:document-units="pt"
     units="pt"
     inkscape:zoom="2.1360282"
     inkscape:cx="60.679317"
     inkscape:cy="-5.6124819"
     inkscape:window-x="-8"
     inkscape:window-y="90"
     inkscape:window-maximized="1"
     inkscape:current-layer="svg6" />
  <g
     id="g824"
     transform="matrix(0.79999997,0,0,0.79999997,1.3653338,1.365335)">
    <path
       style="fill:#563d7c;stroke-width:0.05333333"
       inkscape:connector-curvature="0"
       id="path2"
       d="m 0,11.892851 c 0,0.972374 0.78821334,1.760481 1.76048,1.760481 H 11.8928 c 0.972427,0 1.760533,-0.788214 1.760533,-1.760481 V 1.7605313 c 0,-0.97242664 -0.788213,-1.7605333138889 -1.76048,-1.7605333138889 H 1.7605333 C 0.78810667,-2.0138889e-6 0,0.78821132 0,1.760478 v 10.13232 z" />
    <path
       style="fill:#ffffff;stroke-width:0.05333333"
       inkscape:connector-curvature="0"
       id="path4"
       d="M 5.66176,6.039358 V 4.1058647 h 1.70192 c 0.1621334,0 0.3184,0.013493 0.4689067,0.040533 0.1505067,0.026987 0.28368,0.0752 0.3994667,0.1446933 0.1157333,0.069493 0.2083733,0.1659734 0.2778667,0.28944 0.06944,0.12352 0.1042133,0.28176 0.1042133,0.4746667 0,0.34736 -0.1042133,0.59824 -0.31264,0.7525867 C 8.09312,5.9621847 7.8268267,6.039358 7.5026134,6.039358 Z M 3.844,2.6933313 v 8.2666667 h 4.0059734 c 0.3705066,0 0.73136,-0.04629 1.08256,-0.138933 0.3512,-0.09264 0.6637867,-0.235414 0.9378133,-0.428374 C 10.14432,10.199731 10.3624,9.9507715 10.52448,9.6459181 c 0.162133,-0.3049066 0.243147,-0.66576 0.243147,-1.08256 0,-0.5171733 -0.12544,-0.95904 -0.376267,-1.3256534 C 10.14048,6.871038 9.7603201,6.614398 9.2508801,6.4677314 9.6213867,6.290238 9.9012267,6.0625047 10.090347,5.784638 c 0.189066,-0.2778666 0.283626,-0.6251733 0.283626,-1.0420267 0,-0.38592 -0.06368,-0.71008 -0.19104,-0.9725333 C 10.055573,3.507678 9.8761067,3.2973313 9.6445334,3.1390913 9.4130134,2.9808513 9.1351467,2.8669847 8.8109334,2.7975447 8.4867734,2.7280513 8.12784,2.6933313 7.7341867,2.6933313 Z M 5.66176,9.5474648 V 7.2781847 h 1.9797867 c 0.3936533,0 0.7101333,0.090667 0.94944,0.2721067 0.2392534,0.1813867 0.3589334,0.4843201 0.3589334,0.9088534 0,0.21616 -0.036693,0.3936533 -0.1100267,0.5325867 -0.073333,0.1389333 -0.1717333,0.24896 -0.2952533,0.3299733 -0.1234667,0.081067 -0.2662934,0.1389333 -0.4283734,0.1737067 -0.1621333,0.034667 -0.3318933,0.052053 -0.50944,0.052053 z" />
  </g>
</svg>
