<?xml version="1.0" encoding="UTF-8" standalone="no"?>
<svg
   xmlns:dc="http://purl.org/dc/elements/1.1/"
   xmlns:cc="http://creativecommons.org/ns#"
   xmlns:rdf="http://www.w3.org/1999/02/22-rdf-syntax-ns#"
   xmlns:svg="http://www.w3.org/2000/svg"
   xmlns="http://www.w3.org/2000/svg"
   xmlns:sodipodi="http://sodipodi.sourceforge.net/DTD/sodipodi-0.dtd"
   xmlns:inkscape="http://www.inkscape.org/namespaces/inkscape"
   width="100pt"
   height="100pt"
   viewBox="0 0 100 100"
   version="1.1"
   id="svg33"
   sodipodi:docname="heroku.svg"
   inkscape:version="0.92.4 (5da689c313, 2019-01-14)">
  <metadata
     id="metadata37">
    <rdf:RDF>
      <cc:Work
         rdf:about="">
        <dc:format>image/svg+xml</dc:format>
        <dc:type
           rdf:resource="http://purl.org/dc/dcmitype/StillImage" />
        <dc:title></dc:title>
      </cc:Work>
    </rdf:RDF>
  </metadata>
  <sodipodi:namedview
     pagecolor="#ffffff"
     bordercolor="#666666"
     borderopacity="1"
     objecttolerance="10"
     gridtolerance="10"
     guidetolerance="10"
     inkscape:pageopacity="0"
     inkscape:pageshadow="2"
     inkscape:window-width="1600"
     inkscape:window-height="877"
     id="namedview35"
     showgrid="false"
     inkscape:document-units="pt"
     inkscape:zoom="2.2125"
     inkscape:cx="53.333333"
     inkscape:cy="53.333333"
     inkscape:window-x="-8"
     inkscape:window-y="90"
     inkscape:window-maximized="1"
     inkscape:current-layer="svg33" />
  <defs
     id="defs22">
    <linearGradient
       id="linear0"
       gradientUnits="userSpaceOnUse"
       x1="32"
       y1="7"
       x2="32"
       y2="57"
       spreadMethod="reflect">
      <stop
         offset="0"
         style="stop-color:rgb(10.196078%,42.745098%,100%);stop-opacity:1;"
         id="stop2" />
      <stop
         offset="1"
         style="stop-color:rgb(78.431373%,13.333333%,100%);stop-opacity:1;"
         id="stop4" />
    </linearGradient>
    <linearGradient
       id="linear1"
       gradientUnits="userSpaceOnUse"
       x1="31.497999"
       y1="13.875"
       x2="31.497999"
       y2="48.750999"
       spreadMethod="reflect"
       gradientTransform="scale(1.25)">
      <stop
         offset="0"
         style="stop-color:rgb(42.745098%,78.039216%,100%);stop-opacity:1;"
         id="stop7" />
      <stop
         offset="1"
         style="stop-color:rgb(90.196078%,67.058824%,100%);stop-opacity:1;"
         id="stop9" />
    </linearGradient>
    <linearGradient
       id="linear2"
       gradientUnits="userSpaceOnUse"
       x1="38.5"
       y1="13.875"
       x2="38.5"
       y2="48.750999"
       spreadMethod="reflect"
       gradientTransform="scale(1.25)">
      <stop
         offset="0"
         style="stop-color:rgb(42.745098%,78.039216%,100%);stop-opacity:1;"
         id="stop12" />
      <stop
         offset="1"
         style="stop-color:rgb(90.196078%,67.058824%,100%);stop-opacity:1;"
         id="stop14" />
    </linearGradient>
    <linearGradient
       id="linear3"
       gradientUnits="userSpaceOnUse"
       x1="24"
       y1="14.083"
       x2="24"
       y2="48.868999"
       spreadMethod="reflect"
       gradientTransform="scale(1.25)">
      <stop
         offset="0"
         style="stop-color:rgb(42.745098%,78.039216%,100%);stop-opacity:1;"
         id="stop17" />
      <stop
         offset="1"
         style="stop-color:rgb(90.196078%,67.058824%,100%);stop-opacity:1;"
         id="stop19" />
    </linearGradient>
  </defs>
  <g
     id="surface280861"
     transform="matrix(1.28,0,0,1.28,-1.2,-1.2)">
    <path
       style="fill:none;stroke:url(#linear0);stroke-width:2;stroke-linecap:butt;stroke-linejoin:miter;stroke-miterlimit:10"
       d="M 12,51.6375 V 12.3625 C 12,9.953125 13.990625,8 16.44375,8 h 31.1125 C 50.009375,8 52,9.953125 52,12.3625 v 39.275 C 52,54.046875 50.009375,56 47.55625,56 H 16.44375 C 13.990625,56 12,54.046875 12,51.6375 Z m 0,0"
       transform="scale(1.25)"
       id="path24"
       inkscape:connector-curvature="0" />
    <path
       style="fill:url(#linear1);fill-rule:nonzero;stroke:none"
       d="M 52.5,38.191406 V 61.25 H 43.75 V 38.125 c 0,-0.3125 -0.324219,-0.625 -1.5625,-0.625 -1.945312,0 -5.648438,0.402344 -13.90625,3.59375 0,0 -0.46875,0.15625 -0.765625,0.15625 C 26.09375,41.25 26.25,39.0625 26.25,39.0625 V 17.5 H 35 V 31.25 C 36.917969,30.660156 40.269531,30 43.4375,30 49.347656,30 52.5,32.796875 52.5,38.191406 Z m 0,0"
       id="path26"
       inkscape:connector-curvature="0" />
    <path
       style="fill:url(#linear2);fill-rule:nonzero;stroke:none"
       d="m 55,17.539062 -0.539062,1.601563 c -0.04297,0.144531 -1.132813,3.34375 -4.394532,7.886719 L 49.730469,27.5 H 41.25 l 1.492188,-1.964844 c 1.992187,-2.628906 3.789062,-7.226562 3.8125,-7.273437 l 0.292968,-0.722657 z m 0,0"
       id="path28"
       inkscape:connector-curvature="0" />
    <path
       style="fill:url(#linear3);fill-rule:nonzero;stroke:none"
       d="m 33.75,53.75 -7.5,7.5 v -15 z m 0,0"
       id="path30"
       inkscape:connector-curvature="0" />
  </g>
</svg>
