<?xml version="1.0" encoding="UTF-8" standalone="no"?>
<!-- Generator: Adobe Illustrator 19.2.0, SVG Export Plug-In . SVG Version: 6.00 Build 0)  -->

<svg
   xmlns:dc="http://purl.org/dc/elements/1.1/"
   xmlns:cc="http://creativecommons.org/ns#"
   xmlns:rdf="http://www.w3.org/1999/02/22-rdf-syntax-ns#"
   xmlns:svg="http://www.w3.org/2000/svg"
   xmlns="http://www.w3.org/2000/svg"
   xmlns:sodipodi="http://sodipodi.sourceforge.net/DTD/sodipodi-0.dtd"
   xmlns:inkscape="http://www.inkscape.org/namespaces/inkscape"
   version="1.1"
   id="Layer_1"
   width="100pt"
   height="100pt"
   viewBox="0 0 100 100"
   xml:space="preserve"
   sodipodi:docname="jquery.svg"
   inkscape:version="0.92.4 (5da689c313, 2019-01-14)"><metadata
   id="metadata16"><rdf:RDF><cc:Work
       rdf:about=""><dc:format>image/svg+xml</dc:format><dc:type
         rdf:resource="http://purl.org/dc/dcmitype/StillImage" /><dc:title></dc:title></cc:Work></rdf:RDF></metadata><defs
   id="defs14" /><sodipodi:namedview
   pagecolor="#ffffff"
   bordercolor="#666666"
   borderopacity="1"
   objecttolerance="10"
   gridtolerance="10"
   guidetolerance="10"
   inkscape:pageopacity="0"
   inkscape:pageshadow="2"
   inkscape:window-width="1600"
   inkscape:window-height="877"
   id="namedview12"
   showgrid="false"
   inkscape:document-units="pt"
   inkscape:zoom="2.2125"
   inkscape:cx="53.333333"
   inkscape:cy="53.333333"
   inkscape:window-x="-8"
   inkscape:window-y="90"
   inkscape:window-maximized="1"
   inkscape:current-layer="Layer_1" />
<style
   type="text/css"
   id="style2">
	.st0{fill:#0768AD;}
</style>
<g
   id="surface177131"
   transform="matrix(1.136948,0,0,1.136948,4.4726916,4.5015103)">
	<path
   class="st0"
   d="m 43.2,75.2 c 0,0 0,0 0,0 -2.8,0 -5.7,-0.3 -8.6,-0.8 -0.4,-0.1 -0.8,-0.2 -1.2,-0.3 L 33.1,74 c 0,0 -0.1,0 -0.2,-0.1 -0.6,-0.2 -1,-0.3 -1.4,-0.5 0,0 -0.2,-0.1 -0.2,-0.1 -0.3,-0.1 -0.7,-0.3 -1.1,-0.4 0,0 -0.1,0 -0.2,-0.1 -0.5,-0.2 -1,-0.4 -1.4,-0.6 0,0 -0.1,-0.1 -0.2,-0.1 -0.5,-0.2 -0.8,-0.4 -1.2,-0.6 0,0 -0.3,-0.1 -0.3,-0.2 C 26.5,71.1 26.3,71 26.1,70.9 25.9,70.8 25.8,70.7 25.6,70.6 25.3,70.4 25,70.3 24.7,70.1 L 24.4,69.9 C 23.9,69.6 23.5,69.3 23,69.1 l -1.1,-0.8 c 0,0 -0.1,-0.1 -0.1,-0.1 -0.1,-0.1 -0.2,-0.1 -0.3,-0.2 -0.3,-0.2 -0.6,-0.4 -0.8,-0.6 l -1.7,-1 c -0.3,-0.2 -0.6,-0.5 -0.9,-0.8 0,0 -0.2,-0.2 -0.3,-0.2 -0.2,-0.2 -0.5,-0.5 -0.8,-0.8 l -0.2,-0.2 c 0,0 -0.1,-0.1 -0.1,-0.1 -0.2,-0.2 -0.5,-0.5 -0.7,-0.7 l -0.3,-0.3 c -0.3,-0.3 -0.6,-0.6 -0.9,-0.9 0,0 -0.1,-0.1 -0.1,-0.1 -0.3,-0.3 -0.6,-0.7 -0.9,-1 L 13.6,61 c 0,0 -0.1,-0.1 -0.1,-0.1 l -0.9,-1.2 c -0.2,-0.3 -0.4,-0.6 -0.7,-0.9 l -0.1,-0.1 c 0,0 0,0 0,0 -0.3,-0.4 -0.5,-0.8 -0.8,-1.1 0,-0.1 -0.1,-0.2 -0.2,-0.3 l -0.3,-0.4 c -0.1,-0.2 -0.2,-0.3 -0.3,-0.5 0,0 -0.1,-0.2 -0.2,-0.3 L 9.5,55.2 C 9.4,55 9.3,54.8 9.2,54.7 9.2,54.7 9.1,54.5 9,54.4 9,54.4 8.9,54.2 8.8,54 L 8.7,53.9 C 8.6,53.7 8.5,53.5 8.4,53.3 3.9,44.3 2.6,29.5 9.2,20 c 0.3,-0.4 2.5,-4 5.6,-6.7 0.6,-0.6 1.5,-0.5 2.1,0 0.6,0.6 0.7,1.5 0.2,2.1 -4.8,6.6 -3.2,24.5 3,33 0.2,0.3 0.5,0.6 0.7,0.9 0.1,0.1 0.2,0.2 0.3,0.4 l 0.7,0.8 c 0.4,0.4 0.6,0.8 0.9,1.1 0.3,0.3 0.6,0.6 0.9,0.9 l 1.1,1.1 c 0.4,0.4 0.7,0.7 1,1 0,0 0.1,0.1 0.1,0.1 0.3,0.2 0.6,0.5 0.9,0.7 l 0.3,0.3 c 0.2,0.1 0.4,0.3 0.6,0.5 0.2,0.2 0.4,0.3 0.5,0.4 0.2,0.2 0.5,0.4 0.8,0.5 l 0.2,0.1 c 0.4,0.3 0.7,0.5 0.9,0.6 0.2,0.1 0.2,0.2 0.3,0.2 0.4,0.3 0.8,0.5 1.2,0.7 0.1,0.1 0.3,0.1 0.4,0.2 l 1.3,0.7 c 0.3,0.2 0.5,0.3 0.7,0.4 0,0 0.3,0.1 0.3,0.1 0.3,0.2 0.7,0.3 1,0.5 l 0.2,0.1 c 0.4,0.2 0.8,0.3 1.1,0.5 l 0.4,0.1 c 0.3,0.1 0.7,0.3 1,0.4 l 0.2,0.1 c 0.4,0.1 0.8,0.3 1.2,0.4 l 0.6,0.2 c 0.3,0.1 0.6,0.2 0.9,0.3 12.7,2.9 23.8,0 29.7,-7.7 0.5,-0.6 1.4,-0.8 2.1,-0.4 0.7,0.4 1,1.2 0.7,2 0.1,0.2 -7.2,18.6 -30.1,18.6 z"
   id="path4"
   inkscape:connector-curvature="0"
   style="fill:#0768ad" />
	<path
   class="st0"
   d="m 52.1,52.8 c -2,0 -4.1,-0.2 -6.3,-0.6 C 45.4,52.1 45,52 44.6,51.9 l -0.7,-0.2 c -0.3,-0.1 -0.6,-0.2 -0.9,-0.3 0,0 -0.2,-0.1 -0.2,-0.1 L 42.6,51.2 C 42.2,51 41.9,50.9 41.5,50.8 L 41,50.6 C 40.7,50.4 40.3,50.3 40,50.1 40,50.1 39.9,50 39.8,50 L 39.3,49.7 C 39.1,49.6 39,49.5 38.9,49.5 38.7,49.4 38.4,49.2 38.1,49.1 37.7,48.8 37.3,48.7 37,48.4 v -0.1 l -0.2,-0.1 c -0.2,-0.1 -0.3,-0.2 -0.4,-0.3 0,0 -0.1,-0.1 -0.1,-0.1 C 35.9,47.5 35.5,47.2 35,46.9 L 34.9,46.8 C 34.4,46.4 34,46 33.6,45.7 c 0,0 -0.1,-0.1 -0.1,-0.1 0,0 0,0 0,0 -0.4,-0.3 -0.7,-0.6 -1,-1 0,0 -0.1,-0.1 -0.1,-0.1 l -0.2,-0.2 c -0.3,-0.3 -0.7,-0.7 -1,-1 -0.9,-0.8 -1.6,-1.8 -2.2,-2.7 l -0.2,-0.3 c -0.7,-1.1 -1.4,-2.2 -2,-3.4 -3.9,-7.6 -3.5,-16.7 0.8,-23.1 0,0 0,0 0,-0.1 0.1,-0.1 2.6,-3.4 5,-5.3 0.6,-0.5 1.5,-0.5 2.1,0 0.6,0.5 0.7,1.4 0.3,2 -3,5.2 -4,10.8 -2.6,15.2 1.4,4.7 4.5,9.1 8.6,12.4 l 0.2,0.1 c 0.4,0.4 0.8,0.6 1.2,0.9 0.2,0.1 0.3,0.2 0.5,0.4 0,0 0.1,0.1 0.2,0.1 l 0.1,0.1 c 0.2,0.1 0.4,0.3 0.7,0.4 l 0.2,0.1 0.2,0.1 c 0.3,0.2 0.5,0.3 0.7,0.4 l 0.9,0.5 c 0.3,0.2 0.7,0.3 1.1,0.5 l 0.2,0.1 c 0.3,0.1 0.6,0.2 0.8,0.3 l 0.4,0.2 c 0.3,0.1 0.6,0.2 0.9,0.3 0.1,0 0.2,0.1 0.3,0.1 0.5,0.2 0.9,0.3 1.3,0.4 8.6,2.3 17.1,-0.5 21.6,-7 0.4,-0.6 1.3,-0.9 2,-0.5 0.7,0.3 1.1,1.1 0.9,1.9 0,0.2 -4.6,15.2 -22.3,15.5 -0.5,-0.1 -0.7,-0.1 -1,-0.1 z"
   id="path6"
   inkscape:connector-curvature="0"
   style="fill:#0768ad" />
	<path
   class="st0"
   d="m 59.7,33.6 c -0.2,0 -0.4,0 -0.6,0 -1.2,0 -2.4,-0.2 -3.7,-0.4 -0.3,-0.1 -0.5,-0.1 -0.8,-0.2 l -0.2,-0.1 c 0,0 -0.3,-0.1 -0.3,-0.1 -0.3,-0.1 -0.4,-0.2 -0.6,-0.2 -4.8,-1.8 -8.9,-5.7 -10.8,-10.4 -0.8,-2 -1.3,-4.1 -1.2,-6.2 0,-2.8 0.9,-5.5 2.4,-7.8 0,0 0,0 0.1,-0.1 0.3,-0.4 1.9,-2.4 3.2,-3.1 0.6,-0.3 1.4,-0.2 1.9,0.4 0.5,0.6 0.5,1.3 0.2,1.9 -2.9,4.5 -0.9,12.4 3.9,16.2 0.8,0.6 1.7,1.2 2.7,1.7 0.5,0.2 1,0.5 1.5,0.6 0.4,0.1 0.9,0.3 1.3,0.4 5.5,1.4 9.5,0.3 11.9,-3.1 0,0 0,0 0,0 0.5,-0.7 1.5,-0.9 2.2,-0.4 0.7,0.5 0.9,1.5 0.4,2.2 0,0 0,0 0,0 -0.1,0.1 -0.2,0.3 -0.3,0.5 -1,2 -4.4,8.2 -13.2,8.2 z"
   id="path8"
   inkscape:connector-curvature="0"
   style="fill:#0768ad" />
</g>
</svg>