<?xml version="1.0" encoding="UTF-8" standalone="no"?>
<svg
   xmlns:dc="http://purl.org/dc/elements/1.1/"
   xmlns:cc="http://creativecommons.org/ns#"
   xmlns:rdf="http://www.w3.org/1999/02/22-rdf-syntax-ns#"
   xmlns:svg="http://www.w3.org/2000/svg"
   xmlns="http://www.w3.org/2000/svg"
   xmlns:sodipodi="http://sodipodi.sourceforge.net/DTD/sodipodi-0.dtd"
   xmlns:inkscape="http://www.inkscape.org/namespaces/inkscape"
   width="100pt"
   height="100pt"
   viewBox="0 0 100 100"
   version="1.1"
   id="svg13"
   sodipodi:docname="mongodb.svg"
   inkscape:version="0.92.4 (5da689c313, 2019-01-14)">
  <metadata
     id="metadata19">
    <rdf:RDF>
      <cc:Work
         rdf:about="">
        <dc:format>image/svg+xml</dc:format>
        <dc:type
           rdf:resource="http://purl.org/dc/dcmitype/StillImage" />
        <dc:title></dc:title>
      </cc:Work>
    </rdf:RDF>
  </metadata>
  <defs
     id="defs17" />
  <sodipodi:namedview
     pagecolor="#ffffff"
     bordercolor="#666666"
     borderopacity="1"
     objecttolerance="10"
     gridtolerance="10"
     guidetolerance="10"
     inkscape:pageopacity="0"
     inkscape:pageshadow="2"
     inkscape:window-width="1600"
     inkscape:window-height="877"
     id="namedview15"
     showgrid="false"
     inkscape:document-units="pt"
     inkscape:zoom="2.2125"
     inkscape:cx="53.333333"
     inkscape:cy="53.333333"
     inkscape:window-x="-8"
     inkscape:window-y="90"
     inkscape:window-maximized="1"
     inkscape:current-layer="svg13" />
  <g
     id="surface280853"
     transform="matrix(1.2000469,0,0,1.2000469,1.998124,1.998124)">
    <path
       style="fill:#5c3f35;fill-opacity:1;fill-rule:nonzero;stroke:none"
       d="m 70,28.832031 c 0,34.167969 -30,44.5 -30,44.5 0,0 -30,-10.332031 -30,-44.5 0,-4.164062 0.332031,-7.664062 0.667969,-10.5 0.5,-4.164062 3.332031,-7.5 7.332031,-8.5 5.167969,-1.5 13.332031,-3.164062 22,-3.164062 8.667969,0 16.832031,1.664062 22.167969,3.164062 4,1 6.832031,4.5 7.332031,8.5 0.167969,2.835938 0.5,6.5 0.5,10.5 z m 0,0"
       id="path2"
       inkscape:connector-curvature="0" />
    <path
       style="fill:#4aae4f;fill-opacity:1;fill-rule:nonzero;stroke:none"
       d="m 40,11.667969 c 8.167969,0 15.832031,1.664062 20.832031,3 2,0.5 3.335938,2.164062 3.667969,4.332031 0.332031,3.167969 0.5,6.5 0.5,9.832031 0,26 -19.167969,36.5 -25,39 -5.832031,-2.664062 -25,-13.164062 -25,-39 C 15,25.5 15.167969,22.167969 15.5,19 c 0.167969,-2.167969 1.667969,-3.832031 3.667969,-4.332031 5,-1.335938 12.664062,-3 20.832031,-3 m 0,-5 c -8.667969,0 -16.832031,1.664062 -22.167969,3.164062 -3.832031,1 -6.832031,4.5 -7.164062,8.5 -0.335938,2.835938 -0.667969,6.5 -0.667969,10.5 0,34.167969 30,44.5 30,44.5 0,0 30,-10.332031 30,-44.5 0,-4.164062 -0.332031,-7.664062 -0.667969,-10.5 -0.5,-4.164062 -3.332031,-7.5 -7.332031,-8.5 -5.167969,-1.5 -13.332031,-3.164062 -22,-3.164062 z m 0,0"
       id="path4"
       inkscape:connector-curvature="0" />
    <path
       style="fill:#dcebc7;fill-opacity:1;fill-rule:nonzero;stroke:none"
       d="m 38.332031,46.667969 h 3.335938 V 60 h -3.335938 z m 0,0"
       id="path6"
       inkscape:connector-curvature="0" />
    <path
       style="fill:#4aae4f;fill-opacity:1;fill-rule:nonzero;stroke:none"
       d="M 40,16.667969 C 40,16.667969 30,25 30,38.332031 30,47 35.5,52.5 38.332031,55 L 40,50 41.667969,55 C 44.5,52.5 50,47 50,38.332031 50,25 40,16.667969 40,16.667969 Z m 0,0"
       id="path8"
       inkscape:connector-curvature="0" />
    <path
       style="fill:#7fc782;fill-opacity:1;fill-rule:nonzero;stroke:none"
       d="M 40,16.667969 C 40,16.667969 30,25 30,38.332031 30,47 35.5,52.5 38.332031,55 L 40,50 Z m 0,0"
       id="path10"
       inkscape:connector-curvature="0" />
  </g>
</svg>
