<?xml version="1.0" encoding="UTF-8" standalone="no"?>
<svg
   xmlns:dc="http://purl.org/dc/elements/1.1/"
   xmlns:cc="http://creativecommons.org/ns#"
   xmlns:rdf="http://www.w3.org/1999/02/22-rdf-syntax-ns#"
   xmlns:svg="http://www.w3.org/2000/svg"
   xmlns="http://www.w3.org/2000/svg"
   xmlns:sodipodi="http://sodipodi.sourceforge.net/DTD/sodipodi-0.dtd"
   xmlns:inkscape="http://www.inkscape.org/namespaces/inkscape"
   width="100pt"
   height="100pt"
   viewBox="0 0 100 100"
   version="1.1"
   id="svg7"
   sodipodi:docname="python.svg"
   inkscape:version="0.92.4 (5da689c313, 2019-01-14)">
  <metadata
     id="metadata13">
    <rdf:RDF>
      <cc:Work
         rdf:about="">
        <dc:format>image/svg+xml</dc:format>
        <dc:type
           rdf:resource="http://purl.org/dc/dcmitype/StillImage" />
        <dc:title></dc:title>
      </cc:Work>
    </rdf:RDF>
  </metadata>
  <defs
     id="defs11" />
  <sodipodi:namedview
     pagecolor="#ffffff"
     bordercolor="#666666"
     borderopacity="1"
     objecttolerance="10"
     gridtolerance="10"
     guidetolerance="10"
     inkscape:pageopacity="0"
     inkscape:pageshadow="2"
     inkscape:window-width="1600"
     inkscape:window-height="877"
     id="namedview9"
     showgrid="false"
     inkscape:document-units="pt"
     inkscape:zoom="2.2125"
     inkscape:cx="53.333333"
     inkscape:cy="53.333333"
     inkscape:window-x="-8"
     inkscape:window-y="90"
     inkscape:window-maximized="1"
     inkscape:current-layer="svg7" />
  <g
     id="surface127078"
     transform="matrix(1.263103,0,0,1.263103,0.3951555,-0.52412)">
    <path
       style="fill:#0075bd;fill-opacity:1;fill-rule:nonzero;stroke:none"
       d="M 40.078125,8.332031 C 37.488281,8.339844 35.691406,8.570312 33.519531,8.945312 27.105469,10.0625 25.9375,12.40625 25.9375,16.726562 v 6.605469 h 15 v 3.335938 H 18.117188 c -4.394532,0 -8.238282,2.070312 -9.457032,7.03125 -1.375,5.695312 -1.4375,9.261719 0,15.207031 1.089844,4.433594 3.496094,7.761719 7.890625,7.761719 h 6.054688 v -8.507813 c 0,-4.945312 4.476562,-9.828125 9.605469,-9.828125 h 12.0625 c 4.203124,0 8.332031,-3.101562 8.332031,-7.292969 v -14.3125 c 0,-4.0625 -2.933594,-7.101562 -7.03125,-7.785156 0.101562,-0.00781 -2.925781,-0.617187 -5.496094,-0.609375 z M 31.773438,15 c 1.367187,0 2.5,1.128906 2.5,2.503906 0,1.386719 -1.132813,2.496094 -2.5,2.496094 -1.398438,0 -2.5,-1.105469 -2.5,-2.496094 0,-1.371094 1.101562,-2.503906 2.5,-2.503906 z m 0,0"
       id="path2"
       inkscape:connector-curvature="0" />
    <path
       style="fill:#ffbf05;fill-opacity:1;fill-rule:nonzero;stroke:none"
       d="m 38.464844,71.667969 c 2.589844,-0.0078 4.386718,-0.238281 6.558594,-0.613281 6.414062,-1.117188 7.582031,-3.460938 7.582031,-7.78125 v -6.605469 h -15 v -3.335938 h 22.820312 c 4.394531,0 8.238281,-2.070312 9.457031,-7.03125 1.378907,-5.695312 1.4375,-9.261719 0,-15.207031 -1.09375,-4.433594 -3.496093,-7.761719 -7.894531,-7.761719 H 55.9375 v 8.507813 c 0,4.945312 -4.476562,9.828125 -9.609375,9.828125 H 34.269531 c -4.203125,0 -8.332031,3.101562 -8.332031,7.292969 v 14.3125 c 0,4.0625 2.929688,7.101562 7.027344,7.785156 -0.101563,0.0078 2.929687,0.617187 5.5,0.609375 z M 46.773438,65 c -1.371094,0 -2.5,-1.128906 -2.5,-2.503906 0,-1.386719 1.128906,-2.496094 2.5,-2.496094 1.394531,0 2.5,1.105469 2.5,2.496094 0,1.371094 -1.109376,2.503906 -2.5,2.503906 z m 0,0"
       id="path4"
       inkscape:connector-curvature="0" />
  </g>
</svg>
