<?xml version="1.0" encoding="UTF-8"?>
<svg xmlns="http://www.w3.org/2000/svg" xmlns:xlink="http://www.w3.org/1999/xlink" width="80pt" height="80pt" viewBox="0 0 80 80" version="1.1">
<g id="surface176945">
<path style=" stroke:none;fill-rule:nonzero;fill:rgb(0.784314%,46.666667%,74.117647%);fill-opacity:1;" d="M 68.332031 8.332031 L 11.667969 8.332031 L 16.667969 65 L 40 71.667969 L 63.332031 65 Z M 68.332031 8.332031 "/>
<path style=" stroke:none;fill-rule:nonzero;fill:rgb(1.176471%,60.784314%,89.803922%);fill-opacity:1;" d="M 40 13.332031 L 40 66.5 L 58.667969 61.167969 L 62.832031 13.332031 Z M 40 13.332031 "/>
<path style=" stroke:none;fill-rule:nonzero;fill:rgb(100%,100%,100%);fill-opacity:1;" d="M 55.167969 21.667969 L 40 21.667969 L 40 28.332031 L 48.167969 28.332031 L 47.667969 35 L 40 35 L 40 41.667969 L 47.332031 41.667969 L 46.832031 49.167969 L 40 51.5 L 40 58.5 L 53.167969 54.167969 L 54.332031 35 Z M 55.167969 21.667969 "/>
<path style=" stroke:none;fill-rule:nonzero;fill:rgb(93.333333%,93.333333%,93.333333%);fill-opacity:1;" d="M 40 21.667969 L 40 28.332031 L 25.167969 28.332031 L 24.667969 21.667969 Z M 32.332031 35 L 32.667969 41.667969 L 40 41.667969 L 40 35 Z M 33 45 L 26.332031 45 L 26.832031 54.167969 L 40 58.5 L 40 51.5 L 33.167969 49.167969 Z M 33 45 "/>
</g>
</svg>
