<?xml version="1.0" encoding="UTF-8"?>
<svg xmlns="http://www.w3.org/2000/svg" xmlns:xlink="http://www.w3.org/1999/xlink" width="80pt" height="80pt" viewBox="0 0 80 80" version="1.1">
<g id="surface177127">
<path style=" stroke:none;fill-rule:nonzero;fill:rgb(95.686275%,31.764706%,11.764706%);fill-opacity:1;" d="M 70.332031 36.832031 L 43.167969 9.667969 C 42.332031 8.832031 41.167969 8.332031 40 8.332031 C 38.832031 8.332031 37.667969 8.832031 36.832031 9.667969 L 31 15.5 L 37.832031 22.332031 C 38.5 22 39.167969 21.832031 40 21.832031 C 42.832031 21.832031 45 24 45 26.832031 C 45 27.667969 44.832031 28.332031 44.5 29 L 51.167969 35.667969 C 51.832031 35.332031 52.5 35.167969 53.332031 35.167969 C 56.167969 35.167969 58.332031 37.332031 58.332031 40.167969 C 58.332031 43 56.167969 45.167969 53.332031 45.167969 C 50.5 45.167969 48.332031 43 48.332031 40.167969 C 48.332031 39.332031 48.5 38.667969 48.832031 38 L 42.167969 31.332031 C 42 31.332031 41.832031 31.5 41.667969 31.5 L 41.667969 48.832031 C 43.667969 49.5 45 51.332031 45 53.5 C 45 56.332031 42.832031 58.5 40 58.5 C 37.167969 58.5 35 56.332031 35 53.5 C 35 51.332031 36.332031 49.5 38.332031 48.832031 L 38.332031 31.332031 C 36.332031 30.667969 35 28.832031 35 26.667969 C 35 25.832031 35.167969 25.167969 35.5 24.5 L 28.667969 17.667969 L 9.667969 36.832031 C 8.832031 37.667969 8.332031 38.832031 8.332031 40 C 8.332031 41.167969 8.832031 42.332031 9.667969 43.167969 L 36.832031 70.332031 C 37.667969 71.167969 38.832031 71.667969 40 71.667969 C 41.167969 71.667969 42.332031 71.167969 43.167969 70.332031 L 70.332031 43.167969 C 71.167969 42.332031 71.667969 41.167969 71.667969 40 C 71.667969 38.832031 71.167969 37.667969 70.332031 36.832031 Z M 70.332031 36.832031 "/>
</g>
</svg>
