<?xml version="1.0" encoding="UTF-8" standalone="no"?>
<svg
   xmlns:dc="http://purl.org/dc/elements/1.1/"
   xmlns:cc="http://creativecommons.org/ns#"
   xmlns:rdf="http://www.w3.org/1999/02/22-rdf-syntax-ns#"
   xmlns:svg="http://www.w3.org/2000/svg"
   xmlns="http://www.w3.org/2000/svg"
   xmlns:sodipodi="http://sodipodi.sourceforge.net/DTD/sodipodi-0.dtd"
   xmlns:inkscape="http://www.inkscape.org/namespaces/inkscape"
   width="100pt"
   height="100pt"
   viewBox="0 0 100 100"
   version="1.1"
   id="svg5"
   sodipodi:docname="git.svg"
   inkscape:version="0.92.4 (5da689c313, 2019-01-14)">
  <metadata
     id="metadata11">
    <rdf:RDF>
      <cc:Work
         rdf:about="">
        <dc:format>image/svg+xml</dc:format>
        <dc:type
           rdf:resource="http://purl.org/dc/dcmitype/StillImage" />
        <dc:title></dc:title>
      </cc:Work>
    </rdf:RDF>
  </metadata>
  <defs
     id="defs9" />
  <sodipodi:namedview
     pagecolor="#ffffff"
     bordercolor="#666666"
     borderopacity="1"
     objecttolerance="10"
     gridtolerance="10"
     guidetolerance="10"
     inkscape:pageopacity="0"
     inkscape:pageshadow="2"
     inkscape:window-width="1600"
     inkscape:window-height="877"
     id="namedview7"
     showgrid="false"
     inkscape:document-units="pt"
     inkscape:zoom="2.2125"
     inkscape:cx="53.333333"
     inkscape:cy="53.333333"
     inkscape:window-x="-8"
     inkscape:window-y="90"
     inkscape:window-maximized="1"
     inkscape:current-layer="svg5" />
  <g
     id="surface177127"
     transform="matrix(1.263106,0,0,1.263106,-0.52424,-0.52424)">
    <path
       style="fill:#f34f1c;fill-opacity:1;fill-rule:nonzero;stroke:none"
       d="M 70.332031,36.832031 43.167969,9.667969 C 42.332031,8.832031 41.167969,8.332031 40,8.332031 c -1.167969,0 -2.332031,0.5 -3.167969,1.335938 L 31,15.5 37.832031,22.332031 C 38.5,22 39.167969,21.832031 40,21.832031 c 2.832031,0 5,2.167969 5,5 0,0.835938 -0.167969,1.5 -0.5,2.167969 l 6.667969,6.667969 c 0.664062,-0.335938 1.332031,-0.5 2.164062,-0.5 2.835938,0 5,2.164062 5,5 0,2.832031 -2.164062,5 -5,5 -2.832031,0 -5,-2.167969 -5,-5 0,-0.835938 0.167969,-1.5 0.5,-2.167969 L 42.167969,31.332031 C 42,31.332031 41.832031,31.5 41.667969,31.5 V 48.832031 C 43.667969,49.5 45,51.332031 45,53.5 c 0,2.832031 -2.167969,5 -5,5 -2.832031,0 -5,-2.167969 -5,-5 0,-2.167969 1.332031,-4 3.332031,-4.667969 v -17.5 c -2,-0.664062 -3.332031,-2.5 -3.332031,-4.664062 0,-0.835938 0.167969,-1.5 0.5,-2.167969 l -6.832031,-6.832031 -19,19.164062 c -0.835938,0.835938 -1.335938,2 -1.335938,3.167969 0,1.167969 0.5,2.332031 1.335938,3.167969 l 27.164062,27.164062 c 0.835938,0.835938 2,1.335938 3.167969,1.335938 1.167969,0 2.332031,-0.5 3.167969,-1.335938 L 70.332031,43.167969 c 0.835938,-0.835938 1.335938,-2 1.335938,-3.167969 0,-1.167969 -0.5,-2.332031 -1.335938,-3.167969 z m 0,0"
       id="path2"
       inkscape:connector-curvature="0" />
  </g>
</svg>
