<?xml version="1.0" encoding="UTF-8" standalone="no"?>
<svg
   xmlns:dc="http://purl.org/dc/elements/1.1/"
   xmlns:cc="http://creativecommons.org/ns#"
   xmlns:rdf="http://www.w3.org/1999/02/22-rdf-syntax-ns#"
   xmlns:svg="http://www.w3.org/2000/svg"
   xmlns="http://www.w3.org/2000/svg"
   xmlns:sodipodi="http://sodipodi.sourceforge.net/DTD/sodipodi-0.dtd"
   xmlns:inkscape="http://www.inkscape.org/namespaces/inkscape"
   width="100pt"
   height="100pt"
   viewBox="0 0 100 100"
   version="1.1"
   id="svg11"
   sodipodi:docname="html5.svg"
   inkscape:version="0.92.4 (5da689c313, 2019-01-14)">
  <metadata
     id="metadata17">
    <rdf:RDF>
      <cc:Work
         rdf:about="">
        <dc:format>image/svg+xml</dc:format>
        <dc:type
           rdf:resource="http://purl.org/dc/dcmitype/StillImage" />
        <dc:title></dc:title>
      </cc:Work>
    </rdf:RDF>
  </metadata>
  <defs
     id="defs15" />
  <sodipodi:namedview
     pagecolor="#ffffff"
     bordercolor="#666666"
     borderopacity="1"
     objecttolerance="10"
     gridtolerance="10"
     guidetolerance="10"
     inkscape:pageopacity="0"
     inkscape:pageshadow="2"
     inkscape:window-width="1600"
     inkscape:window-height="877"
     id="namedview13"
     showgrid="false"
     inkscape:document-units="pt"
     inkscape:zoom="2.2125"
     inkscape:cx="53.333333"
     inkscape:cy="53.333333"
     inkscape:window-x="-8"
     inkscape:window-y="90"
     inkscape:window-maximized="1"
     inkscape:current-layer="svg11" />
  <g
     id="surface175876"
     transform="matrix(1.263106,0,0,1.263106,-0.52424,-0.52424)">
    <path
       style="fill:#e64f00;fill-opacity:1;fill-rule:nonzero;stroke:none"
       d="M 68.332031,8.332031 H 11.667969 L 16.667969,65 40,71.667969 63.332031,65 Z m 0,0"
       id="path2"
       inkscape:connector-curvature="0" />
    <path
       style="fill:#ff6b00;fill-opacity:1;fill-rule:nonzero;stroke:none"
       d="M 40,13.332031 V 66.5 l 18.667969,-5.332031 4.164062,-47.835938 z m 0,0"
       id="path4"
       inkscape:connector-curvature="0" />
    <path
       style="fill:#ffffff;fill-opacity:1;fill-rule:nonzero;stroke:none"
       d="M 40,41.667969 V 35 H 54.332031 L 53.167969,54.167969 40,58.5 v -7 l 6.832031,-2.332031 0.5,-7.5 z m 14.832031,-13.335938 0.5,-6.664062 H 40 v 6.664062 z m 0,0"
       id="path6"
       inkscape:connector-curvature="0" />
    <path
       style="fill:#eeeeee;fill-opacity:1;fill-rule:nonzero;stroke:none"
       d="m 40,51.5 v 7 L 26.832031,54.167969 26.167969,45 h 6.664062 l 0.335938,4.167969 z M 31.832031,28.332031 H 40 V 21.667969 H 24.832031 l 1.167969,20 H 40 V 35 h -7.667969 z m 0,0"
       id="path8"
       inkscape:connector-curvature="0" />
  </g>
</svg>
