<?xml version="1.0" encoding="UTF-8"?>
<svg xmlns="http://www.w3.org/2000/svg" xmlns:xlink="http://www.w3.org/1999/xlink" width="80pt" height="80pt" viewBox="0 0 80 80" version="1.1">
<g id="surface231947">
<path style=" stroke:none;fill-rule:nonzero;fill:rgb(95.686275%,26.27451%,21.176471%);fill-opacity:1;" d="M 39.417969 41.496094 C 37.753906 38.816406 36.546875 36.589844 34.875 32.40625 C 32.046875 25.332031 52.066406 18.941406 43.949219 6.664062 C 47.46875 15.148438 31.320312 20.390625 29.820312 27.453125 C 28.449219 33.949219 39.410156 41.496094 39.417969 41.496094 Z M 39.417969 41.496094 "/>
<path style=" stroke:none;fill-rule:nonzero;fill:rgb(95.686275%,26.27451%,21.176471%);fill-opacity:1;" d="M 39.796875 28.785156 C 39.476562 32.976562 43.511719 35.210938 43.628906 38.273438 C 43.722656 40.769531 41.214844 42.847656 41.214844 42.847656 C 41.214844 42.847656 45.761719 41.953125 47.183594 38.148438 C 48.757812 33.925781 44.125 31.035156 44.601562 27.652344 C 45.046875 24.421875 54.652344 18.414062 54.652344 18.414062 C 54.652344 18.414062 40.519531 19.351562 39.796875 28.785156 Z M 39.796875 28.785156 "/>
<path style=" stroke:none;fill-rule:nonzero;fill:rgb(8.235294%,39.607843%,75.294118%);fill-opacity:1;" d="M 53.472656 41.757812 C 56.398438 41.101562 58.863281 42.964844 58.863281 45.109375 C 58.863281 49.941406 52.160156 54.511719 52.160156 54.511719 C 52.160156 54.511719 62.535156 53.277344 62.535156 45.339844 C 62.535156 40.089844 57.441406 38.777344 53.472656 41.757812 Z M 48.546875 45.660156 C 48.546875 45.660156 51.785156 43.351562 52.644531 42.488281 C 44.707031 44.171875 26.582031 44.398438 26.582031 42.9375 C 26.582031 41.589844 32.425781 40.207031 32.425781 40.207031 C 32.425781 40.207031 19.472656 40.019531 19.472656 43.839844 C 19.472656 47.824219 36.429688 48.109375 48.546875 45.660156 Z M 48.546875 45.660156 "/>
<path style=" stroke:none;fill-rule:nonzero;fill:rgb(8.235294%,39.607843%,75.294118%);fill-opacity:1;" d="M 46.558594 49.285156 C 39.042969 51.785156 25.203125 50.984375 29.300781 47.628906 C 27.304688 47.628906 24.34375 49.234375 24.34375 50.777344 C 24.34375 53.875 39.316406 56.261719 50.394531 51.730469 Z M 46.558594 49.285156 "/>
<path style=" stroke:none;fill-rule:nonzero;fill:rgb(8.235294%,39.607843%,75.294118%);fill-opacity:1;" d="M 31.144531 54.566406 C 28.417969 54.566406 26.652344 56.320312 26.652344 57.601562 C 26.652344 61.585938 42.917969 61.988281 49.363281 57.941406 L 45.265625 55.222656 C 40.453125 57.339844 28.355469 57.632812 31.144531 54.566406 Z M 31.144531 54.566406 "/>
<path style=" stroke:none;fill-rule:nonzero;fill:rgb(8.235294%,39.607843%,75.294118%);fill-opacity:1;" d="M 60.46875 61.054688 C 60.46875 59.492188 58.710938 58.757812 58.078125 58.40625 C 61.792969 67.363281 20.886719 66.667969 20.886719 61.378906 C 20.886719 60.179688 23.898438 59 26.679688 59.558594 L 24.3125 58.160156 C 18.765625 57.289062 15 59.726562 15 61.695312 C 15 70.867188 60.46875 70.425781 60.46875 61.054688 Z M 60.46875 61.054688 "/>
<path style=" stroke:none;fill-rule:nonzero;fill:rgb(8.235294%,39.607843%,75.294118%);fill-opacity:1;" d="M 65 64.339844 C 58.089844 71.164062 40.566406 73.652344 22.949219 69.433594 C 40.566406 76.941406 64.917969 72.714844 65 64.339844 Z M 65 64.339844 "/>
</g>
</svg>
