<?xml version="1.0" encoding="UTF-8" standalone="no"?>
<svg
   xmlns:dc="http://purl.org/dc/elements/1.1/"
   xmlns:cc="http://creativecommons.org/ns#"
   xmlns:rdf="http://www.w3.org/1999/02/22-rdf-syntax-ns#"
   xmlns:svg="http://www.w3.org/2000/svg"
   xmlns="http://www.w3.org/2000/svg"
   xmlns:sodipodi="http://sodipodi.sourceforge.net/DTD/sodipodi-0.dtd"
   xmlns:inkscape="http://www.inkscape.org/namespaces/inkscape"
   width="100pt"
   height="100pt"
   viewBox="0 0 100 100"
   version="1.1"
   id="svg17"
   sodipodi:docname="java.svg"
   inkscape:version="0.92.4 (5da689c313, 2019-01-14)">
  <metadata
     id="metadata23">
    <rdf:RDF>
      <cc:Work
         rdf:about="">
        <dc:format>image/svg+xml</dc:format>
        <dc:type
           rdf:resource="http://purl.org/dc/dcmitype/StillImage" />
        <dc:title></dc:title>
      </cc:Work>
    </rdf:RDF>
  </metadata>
  <defs
     id="defs21" />
  <sodipodi:namedview
     pagecolor="#ffffff"
     bordercolor="#666666"
     borderopacity="1"
     objecttolerance="10"
     gridtolerance="10"
     guidetolerance="10"
     inkscape:pageopacity="0"
     inkscape:pageshadow="2"
     inkscape:window-width="1600"
     inkscape:window-height="877"
     id="namedview19"
     showgrid="false"
     inkscape:document-units="pt"
     inkscape:zoom="2.2125"
     inkscape:cx="53.333333"
     inkscape:cy="53.333333"
     inkscape:window-x="-8"
     inkscape:window-y="90"
     inkscape:window-maximized="1"
     inkscape:current-layer="svg17" />
  <g
     id="surface231947"
     transform="matrix(1.199945,0,0,1.199945,2.0022,2.0034922)">
    <path
       style="fill:#f34235;fill-opacity:1;fill-rule:nonzero;stroke:none"
       d="M 39.417969,41.496094 C 37.753906,38.816406 36.546875,36.589844 34.875,32.40625 32.046875,25.332031 52.066406,18.941406 43.949219,6.664062 47.46875,15.148438 31.320312,20.390625 29.820312,27.453125 c -1.371093,6.496094 9.589844,14.042969 9.597657,14.042969 z m 0,0"
       id="path2"
       inkscape:connector-curvature="0" />
    <path
       style="fill:#f34235;fill-opacity:1;fill-rule:nonzero;stroke:none"
       d="m 39.796875,28.785156 c -0.320313,4.191406 3.714844,6.425782 3.832031,9.488282 0.09375,2.496093 -2.414062,4.574218 -2.414062,4.574218 0,0 4.546875,-0.894531 5.96875,-4.699218 1.574218,-4.222657 -3.058594,-7.113282 -2.582032,-10.496094 0.445313,-3.230469 10.050782,-9.238282 10.050782,-9.238282 0,0 -14.132813,0.9375 -14.855469,10.371094 z m 0,0"
       id="path4"
       inkscape:connector-curvature="0" />
    <path
       style="fill:#1463bf;fill-opacity:1;fill-rule:nonzero;stroke:none"
       d="m 53.472656,41.757812 c 2.925782,-0.65625 5.390625,1.207032 5.390625,3.351563 0,4.832031 -6.703125,9.402344 -6.703125,9.402344 0,0 10.375,-1.234375 10.375,-9.171875 0,-5.25 -5.09375,-6.5625 -9.0625,-3.582032 z m -4.925781,3.902344 c 0,0 3.238281,-2.308594 4.097656,-3.171875 -7.9375,1.683594 -26.0625,1.910157 -26.0625,0.449219 0,-1.347656 5.84375,-2.730469 5.84375,-2.730469 0,0 -12.953125,-0.1875 -12.953125,3.632813 0,3.984375 16.957032,4.269531 29.074219,1.820312 z m 0,0"
       id="path6"
       inkscape:connector-curvature="0" />
    <path
       style="fill:#1463bf;fill-opacity:1;fill-rule:nonzero;stroke:none"
       d="m 46.558594,49.285156 c -7.515625,2.5 -21.355469,1.699219 -17.257813,-1.65625 -1.996093,0 -4.957031,1.605469 -4.957031,3.148438 0,3.097656 14.972656,5.484375 26.050781,0.953125 z m 0,0"
       id="path8"
       inkscape:connector-curvature="0" />
    <path
       style="fill:#1463bf;fill-opacity:1;fill-rule:nonzero;stroke:none"
       d="m 31.144531,54.566406 c -2.726562,0 -4.492187,1.753906 -4.492187,3.035156 0,3.984376 16.265625,4.386719 22.710937,0.339844 l -4.097656,-2.71875 c -4.8125,2.117188 -16.910156,2.410156 -14.121094,-0.65625 z m 0,0"
       id="path10"
       inkscape:connector-curvature="0" />
    <path
       style="fill:#1463bf;fill-opacity:1;fill-rule:nonzero;stroke:none"
       d="m 60.46875,61.054688 c 0,-1.5625 -1.757812,-2.296876 -2.390625,-2.648438 3.714844,8.957031 -37.191406,8.261719 -37.191406,2.972656 0,-1.199218 3.011719,-2.378906 5.792969,-1.820312 L 24.3125,58.160156 C 18.765625,57.289062 15,59.726562 15,61.695312 c 0,9.171876 45.46875,8.730469 45.46875,-0.640624 z m 0,0"
       id="path12"
       inkscape:connector-curvature="0" />
    <path
       style="fill:#1463bf;fill-opacity:1;fill-rule:nonzero;stroke:none"
       d="m 65,64.339844 c -6.910156,6.824218 -24.433594,9.3125 -42.050781,5.09375 17.617187,7.507812 41.96875,3.28125 42.050781,-5.09375 z m 0,0"
       id="path14"
       inkscape:connector-curvature="0" />
  </g>
</svg>
