<?xml version="1.0" encoding="UTF-8" standalone="no"?>
<svg
   xmlns:dc="http://purl.org/dc/elements/1.1/"
   xmlns:cc="http://creativecommons.org/ns#"
   xmlns:rdf="http://www.w3.org/1999/02/22-rdf-syntax-ns#"
   xmlns:svg="http://www.w3.org/2000/svg"
   xmlns="http://www.w3.org/2000/svg"
   xmlns:sodipodi="http://sodipodi.sourceforge.net/DTD/sodipodi-0.dtd"
   xmlns:inkscape="http://www.inkscape.org/namespaces/inkscape"
   enable-background="new 0 0 398.3 439.9"
   viewBox="0 0 133.33333 133.33334"
   version="1.1"
   id="svg24"
   sodipodi:docname="jest.svg"
   width="100pt"
   height="100pt"
   inkscape:version="0.92.4 (5da689c313, 2019-01-14)">
  <metadata
     id="metadata30">
    <rdf:RDF>
      <cc:Work
         rdf:about="">
        <dc:format>image/svg+xml</dc:format>
        <dc:type
           rdf:resource="http://purl.org/dc/dcmitype/StillImage" />
        <dc:title></dc:title>
      </cc:Work>
    </rdf:RDF>
  </metadata>
  <defs
     id="defs28" />
  <sodipodi:namedview
     pagecolor="#ffffff"
     bordercolor="#666666"
     borderopacity="1"
     objecttolerance="10"
     gridtolerance="10"
     guidetolerance="10"
     inkscape:pageopacity="0"
     inkscape:pageshadow="2"
     inkscape:window-width="1600"
     inkscape:window-height="877"
     id="namedview26"
     showgrid="false"
     units="pt"
     inkscape:zoom="1.0729711"
     inkscape:cx="-20.236883"
     inkscape:cy="176.00898"
     inkscape:window-x="-8"
     inkscape:window-y="90"
     inkscape:window-maximized="1"
     inkscape:current-layer="g43" />
  <g
     id="g43"
     transform="matrix(0.24247247,0,0,0.24247247,18.383546,13.333334)">
    <path
       id="path2"
       d="m 334.9,218.1 c -0.5,0.3 -18.3,-2.7 -40.7,-4.2 -18.2,-1.2 -39.5,-1.2 -56.7,0 -14,0.9 -32.4,-6.1 -34.6,2.3 -8.2,31.4 -26,58.7 -48.5,79.9 -17,16 -36.4,28.1 -57.4,35.6 -25,-12.8 -36.8,-41.4 -26.2,-66.4 8.4,-19.9 18.3,-41.7 0.1,-46.7 -13.2,-3.6 -20.5,9 -25.5,22.5 -9.7,25.9 -28.2,52.7 -33.5,84.5 -5.6,33.5 0,69.1 29,89.3 67.6,46.8 140.9,-29 218.2,-48.1 28,-6.9 58.8,-5.8 83.5,-20.1 18.5,-10.7 30.8,-28.5 34.2,-48.5 5.6,-32.2 -11.1,-64.1 -41.9,-80.1 z"
       inkscape:connector-curvature="0"
       style="fill:#99425b;stroke:#ffffff;stroke-width:20" />
    <path
       id="path4"
       d="m 202.9,216.2 c -8.2,31.4 -26,58.7 -48.5,79.9 -17,16 -36.4,28.1 -57.4,35.6 -25,-12.8 -36.8,-41.4 -26.2,-66.4 8.4,-19.9 18.3,-41.7 0.1,-46.7 -13.2,-3.6 -20.5,9 -25.5,22.5 -9.7,25.9 -28.2,52.7 -33.5,84.5 -5.6,33.5 0,69.1 29,89.3 67.6,46.8 140.9,-29 218.2,-48.1 28,-6.9 58.8,-5.8 83.5,-20.1 18.5,-10.7 30.8,-28.5 34.2,-48.5 5.6,-32.1 -11.1,-64.1 -41.9,-80"
       inkscape:connector-curvature="0"
       style="fill:none;stroke:#ffffff;stroke-width:20" />
    <path
       id="path6"
       d="M 264.9,91.2 319.2,202 384.3,10 h -239 l 65,191.6 z"
       inkscape:connector-curvature="0"
       style="fill:#99425b" />
    <path
       id="path8"
       d="M 264.9,91.2 319.2,202 384.3,10 h -239 l 65,191.6 z"
       inkscape:connector-curvature="0"
       style="fill:none;stroke:#ffffff;stroke-width:20" />
    <circle
       id="circle10"
       r="40.900002"
       cy="216.60001"
       cx="199"
       style="fill:#99425b" />
    <g
       id="g18"
       style="stroke:#ffffff;stroke-width:20">
      <circle
         id="circle12"
         r="40.900002"
         cy="216.60001"
         cx="199"
         style="fill:none" />
      <circle
         id="circle14"
         r="40.900002"
         cy="216.60001"
         cx="332.39999"
         style="fill:#99425b" />
      <circle
         id="circle16"
         r="40.900002"
         cy="216.60001"
         cx="332.39999"
         style="fill:none" />
    </g>
    <circle
       id="circle20"
       r="40.900002"
       cy="216.89999"
       cx="65.099998"
       style="fill:#99425b" />
    <circle
       id="circle22"
       r="40.900002"
       cy="216.89999"
       cx="65.099998"
       style="fill:none;stroke:#ffffff;stroke-width:20" />
  </g>
</svg>
