<?xml version="1.0" encoding="utf-8"?>
<!-- Generator: Adobe Illustrator 19.2.0, SVG Export Plug-In . SVG Version: 6.00 Build 0)  -->
<svg version="1.1" id="Layer_1" xmlns="http://www.w3.org/2000/svg" xmlns:xlink="http://www.w3.org/1999/xlink" width="80pt" height="80pt" viewBox="0 0 80 80" style="enable-background:new 0 0 80 80;" xml:space="preserve">
<style type="text/css">
	.st0{fill:#0768AD;}
</style>
<g id="surface177131">
	<path class="st0" d="M43.2,75.2C43.2,75.2,43.2,75.2,43.2,75.2c-2.8,0-5.7-0.3-8.6-0.8c-0.4-0.1-0.8-0.2-1.2-0.3l-0.3-0.1
		c0,0-0.1,0-0.2-0.1c-0.6-0.2-1-0.3-1.4-0.5c0,0-0.2-0.1-0.2-0.1c-0.3-0.1-0.7-0.3-1.1-0.4c0,0-0.1,0-0.2-0.1
		c-0.5-0.2-1-0.4-1.4-0.6c0,0-0.1-0.1-0.2-0.1c-0.5-0.2-0.8-0.4-1.2-0.6c0,0-0.3-0.1-0.3-0.2c-0.4-0.2-0.6-0.3-0.8-0.4
		c-0.2-0.1-0.3-0.2-0.5-0.3c-0.3-0.2-0.6-0.3-0.9-0.5l-0.3-0.2c-0.5-0.3-0.9-0.6-1.4-0.8l-1.1-0.8c0,0-0.1-0.1-0.1-0.1
		c-0.1-0.1-0.2-0.1-0.3-0.2c-0.3-0.2-0.6-0.4-0.8-0.6L19,66.4c-0.3-0.2-0.6-0.5-0.9-0.8c0,0-0.2-0.2-0.3-0.2
		c-0.2-0.2-0.5-0.5-0.8-0.8l-0.2-0.2c0,0-0.1-0.1-0.1-0.1c-0.2-0.2-0.5-0.5-0.7-0.7l-0.3-0.3c-0.3-0.3-0.6-0.6-0.9-0.9
		c0,0-0.1-0.1-0.1-0.1c-0.3-0.3-0.6-0.7-0.9-1L13.6,61c0,0-0.1-0.1-0.1-0.1l-0.9-1.2c-0.2-0.3-0.4-0.6-0.7-0.9l-0.1-0.1c0,0,0,0,0,0
		c-0.3-0.4-0.5-0.8-0.8-1.1c0-0.1-0.1-0.2-0.2-0.3l-0.3-0.4c-0.1-0.2-0.2-0.3-0.3-0.5c0,0-0.1-0.2-0.2-0.3l-0.5-0.9
		c-0.1-0.2-0.2-0.4-0.3-0.5c0,0-0.1-0.2-0.2-0.3c0,0-0.1-0.2-0.2-0.4l-0.1-0.1c-0.1-0.2-0.2-0.4-0.3-0.6c-4.5-9-5.8-23.8,0.8-33.3
		c0.3-0.4,2.5-4,5.6-6.7c0.6-0.6,1.5-0.5,2.1,0c0.6,0.6,0.7,1.5,0.2,2.1c-4.8,6.6-3.2,24.5,3,33c0.2,0.3,0.5,0.6,0.7,0.9
		c0.1,0.1,0.2,0.2,0.3,0.4l0.7,0.8c0.4,0.4,0.6,0.8,0.9,1.1c0.3,0.3,0.6,0.6,0.9,0.9l1.1,1.1c0.4,0.4,0.7,0.7,1,1
		c0,0,0.1,0.1,0.1,0.1c0.3,0.2,0.6,0.5,0.9,0.7l0.3,0.3c0.2,0.1,0.4,0.3,0.6,0.5c0.2,0.2,0.4,0.3,0.5,0.4c0.2,0.2,0.5,0.4,0.8,0.5
		l0.2,0.1c0.4,0.3,0.7,0.5,0.9,0.6c0.2,0.1,0.2,0.2,0.3,0.2c0.4,0.3,0.8,0.5,1.2,0.7c0.1,0.1,0.3,0.1,0.4,0.2l1.3,0.7
		c0.3,0.2,0.5,0.3,0.7,0.4c0,0,0.3,0.1,0.3,0.1c0.3,0.2,0.7,0.3,1,0.5l0.2,0.1c0.4,0.2,0.8,0.3,1.1,0.5l0.4,0.1
		c0.3,0.1,0.7,0.3,1,0.4l0.2,0.1c0.4,0.1,0.8,0.3,1.2,0.4l0.6,0.2c0.3,0.1,0.6,0.2,0.9,0.3c12.7,2.9,23.8,0,29.7-7.7
		c0.5-0.6,1.4-0.8,2.1-0.4c0.7,0.4,1,1.2,0.7,2C73.4,56.8,66.1,75.2,43.2,75.2z"/>
	<path class="st0" d="M52.1,52.8c-2,0-4.1-0.2-6.3-0.6c-0.4-0.1-0.8-0.2-1.2-0.3l-0.7-0.2c-0.3-0.1-0.6-0.2-0.9-0.3
		c0,0-0.2-0.1-0.2-0.1l-0.2-0.1c-0.4-0.2-0.7-0.3-1.1-0.4L41,50.6c-0.3-0.2-0.7-0.3-1-0.5c0,0-0.1-0.1-0.2-0.1l-0.5-0.3
		c-0.2-0.1-0.3-0.2-0.4-0.2c-0.2-0.1-0.5-0.3-0.8-0.4c-0.4-0.3-0.8-0.4-1.1-0.7L37,48.3l-0.2-0.1c-0.2-0.1-0.3-0.2-0.4-0.3
		c0,0-0.1-0.1-0.1-0.1c-0.4-0.3-0.8-0.6-1.3-0.9l-0.1-0.1c-0.5-0.4-0.9-0.8-1.3-1.1c0,0-0.1-0.1-0.1-0.1c0,0,0,0,0,0
		c-0.4-0.3-0.7-0.6-1-1c0,0-0.1-0.1-0.1-0.1l-0.2-0.2c-0.3-0.3-0.7-0.7-1-1c-0.9-0.8-1.6-1.8-2.2-2.7l-0.2-0.3
		c-0.7-1.1-1.4-2.2-2-3.4c-3.9-7.6-3.5-16.7,0.8-23.1c0,0,0,0,0-0.1c0.1-0.1,2.6-3.4,5-5.3c0.6-0.5,1.5-0.5,2.1,0
		c0.6,0.5,0.7,1.4,0.3,2c-3,5.2-4,10.8-2.6,15.2c1.4,4.7,4.5,9.1,8.6,12.4l0.2,0.1c0.4,0.4,0.8,0.6,1.2,0.9c0.2,0.1,0.3,0.2,0.5,0.4
		c0,0,0.1,0.1,0.2,0.1l0.1,0.1c0.2,0.1,0.4,0.3,0.7,0.4l0.2,0.1l0.2,0.1c0.3,0.2,0.5,0.3,0.7,0.4l0.9,0.5c0.3,0.2,0.7,0.3,1.1,0.5
		l0.2,0.1c0.3,0.1,0.6,0.2,0.8,0.3l0.4,0.2c0.3,0.1,0.6,0.2,0.9,0.3c0.1,0,0.2,0.1,0.3,0.1c0.5,0.2,0.9,0.3,1.3,0.4
		c8.6,2.3,17.1-0.5,21.6-7c0.4-0.6,1.3-0.9,2-0.5c0.7,0.3,1.1,1.1,0.9,1.9c0,0.2-4.6,15.2-22.3,15.5C52.6,52.8,52.4,52.8,52.1,52.8z
		"/>
	<path class="st0" d="M59.7,33.6c-0.2,0-0.4,0-0.6,0c-1.2,0-2.4-0.2-3.7-0.4c-0.3-0.1-0.5-0.1-0.8-0.2l-0.2-0.1c0,0-0.3-0.1-0.3-0.1
		c-0.3-0.1-0.4-0.2-0.6-0.2c-4.8-1.8-8.9-5.7-10.8-10.4c-0.8-2-1.3-4.1-1.2-6.2c0-2.8,0.9-5.5,2.4-7.8c0,0,0,0,0.1-0.1
		c0.3-0.4,1.9-2.4,3.2-3.1c0.6-0.3,1.4-0.2,1.9,0.4s0.5,1.3,0.2,1.9c-2.9,4.5-0.9,12.4,3.9,16.2c0.8,0.6,1.7,1.2,2.7,1.7
		c0.5,0.2,1,0.5,1.5,0.6c0.4,0.1,0.9,0.3,1.3,0.4c5.5,1.4,9.5,0.3,11.9-3.1c0,0,0,0,0,0c0.5-0.7,1.5-0.9,2.2-0.4
		c0.7,0.5,0.9,1.5,0.4,2.2c0,0,0,0,0,0c-0.1,0.1-0.2,0.3-0.3,0.5C71.9,27.4,68.5,33.6,59.7,33.6z"/>
</g>
</svg>
