<?xml version="1.0" encoding="UTF-8" standalone="no"?>
<svg
   xmlns:dc="http://purl.org/dc/elements/1.1/"
   xmlns:cc="http://creativecommons.org/ns#"
   xmlns:rdf="http://www.w3.org/1999/02/22-rdf-syntax-ns#"
   xmlns:svg="http://www.w3.org/2000/svg"
   xmlns="http://www.w3.org/2000/svg"
   xmlns:sodipodi="http://sodipodi.sourceforge.net/DTD/sodipodi-0.dtd"
   xmlns:inkscape="http://www.inkscape.org/namespaces/inkscape"
   width="100pt"
   height="100pt"
   viewBox="7.025 7.025 26.557387 26.557333"
   version="1.1"
   id="svg9"
   sodipodi:docname="linkedin.svg"
   inkscape:version="0.92.4 (5da689c313, 2019-01-14)">
  <metadata
     id="metadata15">
    <rdf:RDF>
      <cc:Work
         rdf:about="">
        <dc:format>image/svg+xml</dc:format>
        <dc:type
           rdf:resource="http://purl.org/dc/dcmitype/StillImage" />
        <dc:title></dc:title>
      </cc:Work>
    </rdf:RDF>
  </metadata>
  <defs
     id="defs13" />
  <sodipodi:namedview
     pagecolor="#ffffff"
     bordercolor="#666666"
     borderopacity="1"
     objecttolerance="10"
     gridtolerance="10"
     guidetolerance="10"
     inkscape:pageopacity="0"
     inkscape:pageshadow="2"
     inkscape:window-width="1600"
     inkscape:window-height="877"
     id="namedview11"
     showgrid="false"
     inkscape:document-units="pt"
     units="pt"
     inkscape:zoom="4.2720563"
     inkscape:cx="65.385233"
     inkscape:cy="64.531849"
     inkscape:window-x="-8"
     inkscape:window-y="90"
     inkscape:window-maximized="1"
     inkscape:current-layer="svg9" />
  <linearGradient
     id="a"
     gradientUnits="userSpaceOnUse"
     x1="-974.48199"
     y1="1306.7729"
     x2="-622.37799"
     y2="1658.877"
     gradientTransform="matrix(0.04266675,0,0,0.04266675,54.370085,-42.963654)">
    <stop
       offset="0"
       stop-color="#2489be"
       id="stop2" />
    <stop
       offset="1"
       stop-color="#0575b3"
       id="stop4" />
  </linearGradient>
  <path
     d="m 20.303673,9.680712 c -5.866935,0 -10.6229555,4.75602 -10.6229555,10.622955 0,5.866935 4.7560205,10.622955 10.6229555,10.622955 5.866935,0 10.622998,-4.75602 10.622998,-10.622955 C 30.926628,14.436732 26.170523,9.680712 20.303673,9.680712 Z m -2.834224,15.758667 h -2.332378 v -7.535248 h 2.332378 z m -1.177304,-8.522045 c -0.76173,0 -1.379246,-0.62255 -1.379246,-1.390381 0,-0.767916 0.617602,-1.390424 1.379246,-1.390424 0.761644,0 1.37916,0.622508 1.37916,1.390424 4.3e-5,0.767874 -0.617473,1.390381 -1.37916,1.390381 z m 9.917887,8.522045 H 23.888961 V 21.484 c 0,-1.084845 -0.412076,-1.690414 -1.269891,-1.690414 -0.933591,0 -1.421315,0.6307 -1.421315,1.690414 v 3.955379 h -2.237018 v -7.535248 h 2.237018 v 1.014872 c 0,0 0.672897,-1.244718 2.270682,-1.244718 1.597827,0 2.741638,0.975618 2.741638,2.993884 z"
     id="path7"
     inkscape:connector-curvature="0"
     style="fill:url(#a);stroke-width:0.04266676" />
</svg>
