<?xml version="1.0" encoding="UTF-8"?>
<svg xmlns="http://www.w3.org/2000/svg" xmlns:xlink="http://www.w3.org/1999/xlink" width="80pt" height="80pt" viewBox="0 0 80 80" version="1.1">
<g id="surface128258">
<path style=" stroke:none;fill-rule:nonzero;fill:rgb(21.960784%,55.686275%,23.529412%);fill-opacity:1;" d="M 28.671875 31.871094 L 20.496094 36.394531 C 20.1875 36.5625 20 36.875 20 37.214844 L 20 46.269531 C 20 46.609375 20.1875 46.921875 20.496094 47.089844 L 28.675781 51.617188 C 28.980469 51.785156 29.359375 51.785156 29.664062 51.617188 L 37.839844 47.089844 C 38.144531 46.921875 38.332031 46.609375 38.332031 46.269531 L 38.332031 37.214844 C 38.332031 36.875 38.144531 36.566406 37.839844 36.394531 L 29.660156 31.871094 C 29.507812 31.785156 29.335938 31.742188 29.167969 31.742188 C 28.996094 31.742188 28.824219 31.785156 28.671875 31.871094 M 70.75 40.023438 L 69.386719 40.773438 C 69.335938 40.804688 69.308594 40.855469 69.308594 40.910156 L 69.308594 42.421875 C 69.308594 42.476562 69.339844 42.53125 69.386719 42.558594 L 70.75 43.3125 C 70.804688 43.339844 70.863281 43.339844 70.917969 43.3125 L 72.28125 42.558594 C 72.328125 42.53125 72.363281 42.476562 72.363281 42.421875 L 72.363281 40.910156 C 72.363281 40.855469 72.328125 40.804688 72.277344 40.773438 L 70.914062 40.023438 C 70.890625 40.007812 70.863281 40 70.832031 40 C 70.804688 40 70.777344 40.007812 70.75 40.023438 "/>
<path style=" stroke:none;fill-rule:nonzero;fill:rgb(21.568627%,27.843137%,30.980392%);fill-opacity:1;" d="M 59.585938 22.273438 L 55.601562 20.050781 C 55.476562 19.980469 55.324219 19.984375 55.203125 20.058594 C 55.078125 20.128906 55 20.261719 55 20.40625 L 55 33.824219 L 51.328125 31.792969 C 51.175781 31.707031 51.003906 31.667969 50.832031 31.667969 C 50.664062 31.667969 50.492188 31.707031 50.339844 31.792969 L 42.160156 36.316406 C 41.855469 36.488281 41.667969 36.800781 41.667969 37.136719 L 41.667969 46.191406 C 41.667969 46.53125 41.855469 46.839844 42.160156 47.011719 L 50.339844 51.539062 C 50.648438 51.707031 51.023438 51.707031 51.328125 51.539062 L 59.507812 47.011719 C 59.8125 46.84375 60 46.53125 60 46.191406 L 60 22.980469 C 60 22.6875 59.839844 22.417969 59.585938 22.273438 Z M 54.777344 44.097656 L 51.058594 46.15625 C 50.921875 46.230469 50.75 46.230469 50.613281 46.15625 L 46.894531 44.097656 C 46.75 44.019531 46.667969 43.875 46.667969 43.722656 L 46.667969 39.605469 C 46.667969 39.453125 46.75 39.3125 46.890625 39.234375 L 50.609375 37.175781 C 50.679688 37.136719 50.753906 37.121094 50.832031 37.121094 C 50.910156 37.121094 50.988281 37.140625 51.058594 37.175781 L 54.773438 39.234375 C 54.914062 39.3125 55 39.453125 55 39.609375 L 55 43.726562 C 55 43.875 54.914062 44.019531 54.777344 44.097656 Z M 54.777344 44.097656 "/>
<path style=" stroke:none;fill-rule:nonzero;fill:rgb(18.039216%,49.019608%,19.607843%);fill-opacity:1;" d="M 28.671875 31.871094 L 20 46.269531 C 20 46.609375 20.1875 46.921875 20.496094 47.089844 L 28.675781 51.617188 C 28.980469 51.785156 29.359375 51.785156 29.664062 51.617188 L 38.332031 37.214844 C 38.332031 36.875 38.144531 36.566406 37.839844 36.394531 L 29.660156 31.871094 C 29.507812 31.785156 29.335938 31.742188 29.167969 31.742188 C 28.996094 31.742188 28.824219 31.785156 28.671875 31.871094 "/>
<path style=" stroke:none;fill-rule:nonzero;fill:rgb(29.803922%,68.627451%,31.372549%);fill-opacity:1;" d="M 28.671875 31.871094 L 20.496094 36.394531 C 20.1875 36.5625 20 36.875 20 37.214844 L 28.671875 51.617188 C 28.976562 51.785156 29.355469 51.785156 29.660156 51.617188 L 37.839844 47.089844 C 38.144531 46.921875 38.332031 46.609375 38.332031 46.269531 L 29.660156 31.871094 C 29.507812 31.785156 29.335938 31.742188 29.167969 31.742188 C 28.996094 31.742188 28.824219 31.785156 28.671875 31.871094 "/>
<path style=" stroke:none;fill-rule:nonzero;fill:rgb(21.568627%,27.843137%,30.980392%);fill-opacity:1;" d="M 79.503906 36.316406 L 71.328125 31.792969 C 71.175781 31.707031 71.003906 31.667969 70.832031 31.667969 C 70.664062 31.667969 70.492188 31.707031 70.339844 31.792969 L 62.160156 36.316406 C 61.855469 36.488281 61.667969 36.808594 61.667969 37.15625 L 61.667969 46.175781 C 61.667969 46.523438 61.855469 46.84375 62.160156 47.011719 L 70.339844 51.542969 C 70.648438 51.710938 71.023438 51.710938 71.328125 51.542969 L 75.101562 49.453125 C 75.445312 49.261719 75.445312 48.765625 75.097656 48.578125 L 66.890625 44.097656 C 66.753906 44.019531 66.667969 43.875 66.667969 43.71875 L 66.667969 39.609375 C 66.667969 39.453125 66.75 39.3125 66.882812 39.238281 L 70.609375 37.179688 L 70.605469 37.179688 C 70.675781 37.140625 70.753906 37.125 70.832031 37.125 C 70.910156 37.125 70.988281 37.144531 71.058594 37.179688 L 74.78125 39.242188 C 74.914062 39.316406 75 39.457031 75 39.609375 L 75 42.964844 C 75 43.105469 75.074219 43.238281 75.199219 43.3125 C 75.324219 43.382812 75.476562 43.382812 75.601562 43.308594 L 79.601562 40.988281 C 79.847656 40.84375 80 40.578125 80 40.292969 L 80 37.160156 C 80 36.808594 79.808594 36.488281 79.503906 36.316406 Z M 17.839844 36.316406 L 9.660156 31.792969 C 9.507812 31.707031 9.335938 31.667969 9.167969 31.667969 C 8.996094 31.667969 8.824219 31.707031 8.671875 31.792969 L 0.496094 36.316406 C 0.191406 36.488281 0 36.808594 0 37.15625 L 0 49.597656 C 0 49.742188 0.078125 49.875 0.203125 49.945312 C 0.328125 50.015625 0.480469 50.015625 0.605469 49.945312 L 4.601562 47.625 C 4.847656 47.480469 5 47.214844 5 46.929688 L 5 39.605469 C 5 39.453125 5.082031 39.3125 5.214844 39.238281 L 8.941406 37.179688 C 9.011719 37.140625 9.089844 37.121094 9.167969 37.121094 C 9.246094 37.121094 9.320312 37.140625 9.390625 37.179688 L 13.117188 39.238281 C 13.25 39.3125 13.332031 39.453125 13.332031 39.609375 L 13.332031 46.929688 C 13.332031 47.214844 13.484375 47.480469 13.734375 47.625 L 17.730469 49.945312 C 17.855469 50.019531 18.007812 50.019531 18.132812 49.949219 C 18.257812 49.875 18.332031 49.742188 18.332031 49.597656 L 18.332031 37.160156 C 18.332031 36.808594 18.144531 36.488281 17.839844 36.316406 Z M 17.839844 36.316406 "/>
</g>
</svg>
