<?xml version="1.0" encoding="UTF-8"?>
<svg xmlns="http://www.w3.org/2000/svg" xmlns:xlink="http://www.w3.org/1999/xlink" width="80pt" height="80pt" viewBox="0 0 80 80" version="1.1">
<g id="surface127078">
<path style=" stroke:none;fill-rule:nonzero;fill:rgb(0.784314%,46.666667%,74.117647%);fill-opacity:1;" d="M 40.078125 8.332031 C 37.488281 8.339844 35.691406 8.570312 33.519531 8.945312 C 27.105469 10.0625 25.9375 12.40625 25.9375 16.726562 L 25.9375 23.332031 L 40.9375 23.332031 L 40.9375 26.667969 L 18.117188 26.667969 C 13.722656 26.667969 9.878906 28.738281 8.660156 33.699219 C 7.285156 39.394531 7.222656 42.960938 8.660156 48.90625 C 9.75 53.339844 12.15625 56.667969 16.550781 56.667969 L 22.605469 56.667969 L 22.605469 48.160156 C 22.605469 43.214844 27.082031 38.332031 32.210938 38.332031 L 44.273438 38.332031 C 48.476562 38.332031 52.605469 35.230469 52.605469 31.039062 L 52.605469 16.726562 C 52.605469 12.664062 49.671875 9.625 45.574219 8.941406 C 45.675781 8.933594 42.648438 8.324219 40.078125 8.332031 Z M 31.773438 15 C 33.140625 15 34.273438 16.128906 34.273438 17.503906 C 34.273438 18.890625 33.140625 20 31.773438 20 C 30.375 20 29.273438 18.894531 29.273438 17.503906 C 29.273438 16.132812 30.375 15 31.773438 15 Z M 31.773438 15 "/>
<path style=" stroke:none;fill-rule:nonzero;fill:rgb(100%,75.686275%,2.745098%);fill-opacity:1;" d="M 38.464844 71.667969 C 41.054688 71.660156 42.851562 71.429688 45.023438 71.054688 C 51.4375 69.9375 52.605469 67.59375 52.605469 63.273438 L 52.605469 56.667969 L 37.605469 56.667969 L 37.605469 53.332031 L 60.425781 53.332031 C 64.820312 53.332031 68.664062 51.261719 69.882812 46.300781 C 71.261719 40.605469 71.320312 37.039062 69.882812 31.09375 C 68.789062 26.660156 66.386719 23.332031 61.988281 23.332031 L 55.9375 23.332031 L 55.9375 31.839844 C 55.9375 36.785156 51.460938 41.667969 46.328125 41.667969 L 34.269531 41.667969 C 30.066406 41.667969 25.9375 44.769531 25.9375 48.960938 L 25.9375 63.273438 C 25.9375 67.335938 28.867188 70.375 32.964844 71.058594 C 32.863281 71.066406 35.894531 71.675781 38.464844 71.667969 Z M 46.773438 65 C 45.402344 65 44.273438 63.871094 44.273438 62.496094 C 44.273438 61.109375 45.402344 60 46.773438 60 C 48.167969 60 49.273438 61.105469 49.273438 62.496094 C 49.273438 63.867188 48.164062 65 46.773438 65 Z M 46.773438 65 "/>
</g>
</svg>
