<?xml version="1.0" encoding="utf-8"?>
<!-- Generator: Adobe Illustrator 19.2.0, SVG Export Plug-In . SVG Version: 6.00 Build 0)  -->
<svg version="1.1" id="Layer_1" xmlns="http://www.w3.org/2000/svg" xmlns:xlink="http://www.w3.org/1999/xlink" x="0px" y="0px"
	 viewBox="0 0 100 100" style="enable-background:new 0 0 100 100;" xml:space="preserve">
<style type="text/css">
	.st0{fill:#61DAFB;}
</style>
<g>
	<path class="st0" d="M97.5,50c0-6.3-7.9-12.3-20-16c2.8-12.3,1.5-22.1-3.9-25.3c-1.3-0.7-2.7-1.1-4.3-1.1v4.3
		c0.9,0,1.6,0.2,2.2,0.5c2.6,1.5,3.8,7.3,2.9,14.7c-0.2,1.8-0.6,3.7-1,5.7c-3.8-0.9-7.9-1.6-12.3-2.1c-2.6-3.6-5.3-6.8-8.1-9.7
		c6.3-5.9,12.2-9.1,16.3-9.1V7.7C64,7.7,57,11.5,49.9,18.1c-7-6.5-14-10.3-19.3-10.3v4.3c4,0,10,3.2,16.3,9c-2.7,2.8-5.4,6.1-8,9.7
		c-4.4,0.5-8.5,1.2-12.3,2.1c-0.4-1.9-0.8-3.8-1-5.6c-0.9-7.4,0.2-13.1,2.8-14.7c0.6-0.3,1.3-0.5,2.2-0.5V7.8
		c-1.6,0-3.1,0.3-4.4,1.1c-5.4,3.1-6.7,12.9-3.9,25.2C10.3,37.8,2.5,43.8,2.5,50c0,6.3,7.9,12.3,20,16c-2.8,12.3-1.5,22.1,3.9,25.3
		c1.3,0.7,2.7,1.1,4.4,1.1c5.3,0,12.3-3.8,19.3-10.4c7,6.5,14,10.3,19.3,10.3c1.6,0,3.1-0.3,4.4-1.1c5.4-3.1,6.7-12.9,3.9-25.2
		C89.6,62.3,97.5,56.3,97.5,50L97.5,50z M72.3,37.1c-0.7,2.5-1.6,5.1-2.6,7.6c-0.8-1.5-1.6-3.1-2.5-4.6c-0.9-1.5-1.8-3.1-2.8-4.5
		C67.1,36,69.7,36.5,72.3,37.1L72.3,37.1z M63.4,57.7c-1.5,2.6-3.1,5.1-4.7,7.4c-2.9,0.3-5.8,0.4-8.8,0.4c-2.9,0-5.8-0.1-8.7-0.4
		c-1.6-2.3-3.2-4.8-4.7-7.4c-1.5-2.5-2.8-5.1-4-7.7c1.2-2.6,2.6-5.2,4-7.7c1.5-2.6,3.1-5.1,4.7-7.4c2.9-0.3,5.8-0.4,8.8-0.4
		c2.9,0,5.8,0.1,8.7,0.4c1.6,2.3,3.2,4.8,4.7,7.4c1.5,2.5,2.8,5.1,4,7.7C66.2,52.6,64.9,55.2,63.4,57.7L63.4,57.7z M69.7,55.2
		c1,2.6,1.9,5.2,2.7,7.7c-2.5,0.6-5.2,1.1-8,1.5c0.9-1.5,1.9-3,2.8-4.6C68,58.3,68.9,56.8,69.7,55.2L69.7,55.2z M50,75.9
		c-1.8-1.9-3.6-3.9-5.4-6.2c1.7,0.1,3.5,0.1,5.3,0.1c1.8,0,3.6,0,5.4-0.1C53.6,71.9,51.8,74,50,75.9z M35.6,64.5
		c-2.7-0.4-5.4-0.9-7.9-1.5c0.7-2.5,1.6-5.1,2.6-7.6c0.8,1.5,1.6,3.1,2.5,4.6C33.7,61.5,34.7,63,35.6,64.5z M49.9,24.2
		c1.8,1.9,3.6,3.9,5.4,6.2c-1.7-0.1-3.5-0.1-5.3-0.1c-1.8,0-3.6,0-5.4,0.1C46.3,28.1,48.1,26,49.9,24.2z M35.6,35.6
		c-0.9,1.5-1.9,3-2.8,4.6c-0.9,1.5-1.7,3.1-2.5,4.6c-1-2.6-1.9-5.2-2.7-7.7C30.2,36.5,32.8,36,35.6,35.6L35.6,35.6z M18.1,59.8
		C11.2,56.9,6.8,53.1,6.8,50s4.4-6.9,11.3-9.8c1.7-0.7,3.5-1.4,5.4-2c1.1,3.8,2.6,7.7,4.4,11.8c-1.8,4-3.2,8-4.3,11.7
		C21.6,61.2,19.8,60.5,18.1,59.8L18.1,59.8z M28.5,87.5c-2.6-1.5-3.8-7.3-2.9-14.7c0.2-1.8,0.6-3.7,1-5.7c3.8,0.9,7.9,1.6,12.3,2.1
		c2.6,3.6,5.3,6.8,8.1,9.7C40.6,84.8,34.7,88,30.7,88C29.8,88,29.1,87.8,28.5,87.5L28.5,87.5z M74.4,72.7c0.9,7.4-0.2,13.1-2.8,14.7
		c-0.6,0.3-1.3,0.5-2.2,0.5c-4,0-10-3.2-16.3-9c2.7-2.8,5.4-6.1,8-9.7c4.4-0.5,8.5-1.2,12.3-2.1C73.9,69.1,74.2,70.9,74.4,72.7z
		 M81.9,59.8c-1.7,0.7-3.5,1.4-5.4,2C75.4,58,74,54,72.2,50c1.8-4,3.2-8,4.3-11.7c1.9,0.6,3.7,1.3,5.4,2c6.9,2.9,11.3,6.8,11.3,9.8
		C93.2,53.1,88.7,56.9,81.9,59.8L81.9,59.8z"/>
	<circle class="st0" cx="50" cy="50" r="8.8"/>
	<path class="st0" d="M69.3,7.7"/>
</g>
</svg>
