<?xml version="1.0" encoding="UTF-8" standalone="no"?>
<svg
   xmlns:dc="http://purl.org/dc/elements/1.1/"
   xmlns:cc="http://creativecommons.org/ns#"
   xmlns:rdf="http://www.w3.org/1999/02/22-rdf-syntax-ns#"
   xmlns:svg="http://www.w3.org/2000/svg"
   xmlns="http://www.w3.org/2000/svg"
   xmlns:sodipodi="http://sodipodi.sourceforge.net/DTD/sodipodi-0.dtd"
   xmlns:inkscape="http://www.inkscape.org/namespaces/inkscape"
   width="100pt"
   height="100pt"
   viewBox="0 0 13.653333 13.652259"
   preserveAspectRatio="xMidYMid"
   version="1.1"
   id="svg4"
   sodipodi:docname="redux.svg"
   inkscape:version="0.92.4 (5da689c313, 2019-01-14)">
  <metadata
     id="metadata10">
    <rdf:RDF>
      <cc:Work
         rdf:about="">
        <dc:format>image/svg+xml</dc:format>
        <dc:type
           rdf:resource="http://purl.org/dc/dcmitype/StillImage" />
        <dc:title></dc:title>
      </cc:Work>
    </rdf:RDF>
  </metadata>
  <defs
     id="defs8" />
  <sodipodi:namedview
     pagecolor="#ffffff"
     bordercolor="#666666"
     borderopacity="1"
     objecttolerance="10"
     gridtolerance="10"
     guidetolerance="10"
     inkscape:pageopacity="0"
     inkscape:pageshadow="2"
     inkscape:window-width="1920"
     inkscape:window-height="1017"
     id="namedview6"
     showgrid="false"
     inkscape:document-units="pt"
     units="pt"
     inkscape:zoom="4.4818048"
     inkscape:cx="70.32996"
     inkscape:cy="67.701221"
     inkscape:window-x="1592"
     inkscape:window-y="-8"
     inkscape:window-maximized="1"
     inkscape:current-layer="svg4" />
  <path
     d="M 9.0459926,8.9930992 C 9.4705687,8.949145 9.7926749,8.5831295 9.7780235,8.1438571 9.763417,7.7046295 9.3973566,7.3532206 8.9581291,7.3532206 H 8.9288713 C 8.4749474,7.367872 8.1235833,7.7485388 8.1382347,8.2024177 8.1528862,8.422054 8.2407047,8.6123874 8.3724774,8.7441601 7.8746892,9.7251754 7.1133555,10.442599 5.971355,11.042902 5.1953699,11.452872 4.3901269,11.599296 3.584884,11.496826 2.9260202,11.408963 2.4135806,11.116159 2.0914295,10.632932 1.6229441,9.9155084 1.5790349,9.1394784 1.9743531,8.3634933 2.25255,7.8070995 2.6917326,7.3971298 2.9699295,7.1921449 2.9113688,7.0018114 2.8235053,6.6797053 2.7795961,6.4454626 0.6566256,7.9828265 0.87626183,10.061932 1.5204742,11.042902 c 0.4831368,0.732121 1.4641067,1.186 2.5475466,1.186 0.2928033,0 0.5856067,-0.0293 0.878455,-0.10247 1.8740764,-0.36606 3.2942738,-1.478848 4.0995168,-3.1333328 z M 11.622842,7.1775384 C 10.510099,5.8744174 8.8703106,5.1569929 6.9962342,5.1569929 H 6.7619915 C 6.6302188,4.8934474 6.3520219,4.7177205 6.0445671,4.7177205 h -0.029303 c -0.453834,0.014651 -0.805198,0.3953182 -0.7905916,0.8492421 0.014651,0.4392275 0.3806669,0.7906365 0.8198944,0.7906365 h 0.029258 C 6.3959311,6.3429477 6.674128,6.1379629 6.7912494,5.859766 h 0.2635455 c 1.1127427,0 2.1668797,0.3221061 3.1185921,0.951712 0.732031,0.4831819 1.259122,1.1127878 1.551925,1.8741215 0.248894,0.6149545 0.234243,1.2152579 -0.0293,1.7277415 -0.409924,0.775985 -1.098046,1.200606 -2.0058041,1.200606 -0.5856516,0 -1.1420005,-0.175727 -1.4348488,-0.307499 -0.1610306,0.146424 -0.4538789,0.380666 -0.6588638,0.527136 0.6296059,0.292803 1.2738183,0.453879 1.8887278,0.453879 1.4055459,0 2.4450769,-0.776031 2.8403949,-1.552016 0.424576,-0.8492416 0.395274,-2.313393 -0.702773,-3.5579086 z M 4.1851421,9.2419483 c 0.014651,0.4392721 0.3806669,0.7906357 0.8198944,0.7906357 h 0.029303 C 5.4882182,10.017978 5.8395823,9.6372664 5.8249308,9.1833877 5.8103244,8.7441152 5.444264,8.3927512 5.0050365,8.3927512 h -0.029258 c -0.029303,0 -0.073257,0 -0.1024699,0.014606 C 4.2730056,7.4117363 4.0241115,6.3282963 4.111975,5.156948 4.1704907,4.278448 4.463339,3.5170694 4.9757786,2.8874635 5.4003547,2.3457211 6.2202491,2.0821756 6.7766429,2.0675691 8.3285682,2.0382663 8.987387,3.9709483 9.0313412,4.7469783 9.2216746,4.7908876 9.5437808,4.8934025 9.763417,4.9666146 9.5876901,2.5947051 8.1235833,1.3647961 6.7180822,1.3647961 c -1.3177275,0 -2.5329401,0.951712 -3.0161218,2.357303 -0.6734702,1.8741214 -0.2342427,3.6750307 0.5856517,5.0952731 -0.073167,0.10247 -0.1171214,0.2635455 -0.10247,0.4246211 z"
     id="path2"
     inkscape:connector-curvature="0"
     style="fill:#764abc;stroke-width:0.04494296" />
</svg>
