<?xml version="1.0" encoding="UTF-8"?>
<svg xmlns="http://www.w3.org/2000/svg" xmlns:xlink="http://www.w3.org/1999/xlink" width="80pt" height="80pt" viewBox="0 0 80 80" version="1.1">
<g id="surface177315">
<path style=" stroke:none;fill-rule:nonzero;fill:rgb(37.647059%,49.019608%,54.509804%);fill-opacity:1;" d="M 15 46.667969 L 20 46.667969 L 20 70 L 15 70 Z M 15 46.667969 "/>
<path style=" stroke:none;fill-rule:nonzero;fill:rgb(37.647059%,49.019608%,54.509804%);fill-opacity:1;" d="M 15 65 L 58.332031 65 L 58.332031 70 L 15 70 Z M 15 65 "/>
<path style=" stroke:none;fill-rule:nonzero;fill:rgb(37.647059%,49.019608%,54.509804%);fill-opacity:1;" d="M 53.332031 46.667969 L 58.332031 46.667969 L 58.332031 70 L 53.332031 70 Z M 25 56.667969 L 48.332031 56.667969 L 48.332031 61.667969 L 25 61.667969 Z M 25 56.667969 "/>
<path style=" stroke:none;fill-rule:nonzero;fill:rgb(65.098039%,54.117647%,43.137255%);fill-opacity:1;" d="M 25.132812 47.097656 L 48.332031 49.597656 L 47.800781 54.566406 L 24.597656 52.070312 Z M 25.132812 47.097656 "/>
<path style=" stroke:none;fill-rule:nonzero;fill:rgb(93.72549%,42.352941%,0%);fill-opacity:1;" d="M 61.449219 10 L 65.007812 33.058594 L 60.0625 33.820312 L 56.507812 10.761719 Z M 61.449219 10 "/>
<path style=" stroke:none;fill-rule:nonzero;fill:rgb(100%,59.607843%,0%);fill-opacity:1;" d="M 47.449219 13.726562 L 58.835938 34.089844 L 54.46875 36.53125 L 43.085938 16.167969 Z M 47.449219 13.726562 "/>
<path style=" stroke:none;fill-rule:nonzero;fill:rgb(82.745098%,54.509804%,15.686275%);fill-opacity:1;" d="M 34.167969 24.25 L 53.335938 37.554688 L 50.480469 41.664062 L 31.316406 28.359375 Z M 34.167969 24.25 "/>
<path style=" stroke:none;fill-rule:nonzero;fill:rgb(75.294118%,58.431373%,32.54902%);fill-opacity:1;" d="M 28.164062 35.363281 L 50.121094 43.261719 L 48.425781 47.96875 L 26.472656 40.070312 Z M 28.164062 35.363281 "/>
</g>
</svg>
