<?xml version="1.0" encoding="UTF-8" standalone="yes"?>
<svg xmlns="http://www.w3.org/2000/svg" xmlns:xlink="http://www.w3.org/1999/xlink" width="80pt" height="80pt" viewBox="0 0 80 80" version="1.1" fill="#000000">
  <g id="surface177135">
    <path style=" stroke:none;fill-rule:evenodd;fill:#000000;fill-opacity:1;" d="M 39.996094 10 C 23.433594 10 10 23.433594 10 40.003906 C 10 53.253906 18.59375 64.5 30.515625 68.46875 C 32.015625 68.742188 32.566406 67.816406 32.566406 67.023438 C 32.566406 66.308594 32.539062 64.421875 32.523438 61.921875 C 24.179688 63.734375 22.421875 57.898438 22.421875 57.898438 C 21.054688 54.433594 19.089844 53.511719 19.089844 53.511719 C 16.363281 51.648438 19.296875 51.6875 19.296875 51.6875 C 22.304688 51.898438 23.890625 54.78125 23.890625 54.78125 C 26.566406 59.363281 30.914062 58.039062 32.621094 57.273438 C 32.890625 55.335938 33.667969 54.011719 34.523438 53.261719 C 27.863281 52.503906 20.859375 49.933594 20.859375 38.433594 C 20.859375 35.160156 22.03125 32.484375 23.949219 30.386719 C 23.640625 29.625 22.609375 26.574219 24.242188 22.445312 C 24.242188 22.445312 26.761719 21.636719 32.492188 25.519531 C 34.886719 24.855469 37.453125 24.523438 40.003906 24.511719 C 42.550781 24.523438 45.117188 24.855469 47.511719 25.519531 C 53.238281 21.636719 55.753906 22.445312 55.753906 22.445312 C 57.390625 26.574219 56.363281 29.625 56.050781 30.386719 C 57.976562 32.484375 59.136719 35.160156 59.136719 38.433594 C 59.136719 49.960938 52.121094 52.496094 45.4375 53.238281 C 46.515625 54.164062 47.476562 55.996094 47.476562 58.792969 C 47.476562 62.800781 47.4375 66.039062 47.4375 67.023438 C 47.4375 67.824219 47.976562 68.757812 49.5 68.464844 C 61.414062 64.488281 70 53.253906 70 40.003906 C 70 23.433594 56.566406 10 39.996094 10 Z M 39.996094 10 "/>
  </g>
</svg>