<?xml version="1.0" encoding="UTF-8"?>
<svg xmlns="http://www.w3.org/2000/svg" xmlns:xlink="http://www.w3.org/1999/xlink" width="80pt" height="80pt" viewBox="0 0 80 80" version="1.1">
<g id="surface128831">
<path style=" stroke:none;fill-rule:nonzero;fill:rgb(100%,83.921569%,0%);fill-opacity:1;" d="M 10 70 L 10 10 L 70 10 L 70 70 Z M 10 70 "/>
<path style=" stroke:none;fill-rule:nonzero;fill:rgb(0%,0%,0.392157%);fill-opacity:1;" d="M 49.230469 54.910156 C 50.382812 56.785156 51.636719 58.578125 54.292969 58.578125 C 56.523438 58.578125 57.691406 57.472656 57.691406 55.9375 C 57.691406 54.101562 56.480469 53.453125 54.027344 52.382812 L 52.683594 51.808594 C 48.800781 50.164062 46.21875 48.101562 46.21875 43.742188 C 46.21875 39.726562 49.296875 36.667969 54.101562 36.667969 C 57.523438 36.667969 59.980469 37.851562 61.753906 40.957031 L 57.5625 43.636719 C 56.640625 41.988281 55.644531 41.339844 54.101562 41.339844 C 52.523438 41.339844 51.523438 42.335938 51.523438 43.636719 C 51.523438 45.242188 52.523438 45.890625 54.832031 46.886719 L 56.179688 47.460938 C 60.753906 49.410156 63.332031 51.398438 63.332031 55.871094 C 63.332031 60.691406 59.527344 63.332031 54.417969 63.332031 C 49.417969 63.332031 46.578125 60.824219 45 57.71875 Z M 29.921875 55.046875 C 30.761719 56.558594 32.046875 57.71875 33.886719 57.71875 C 35.652344 57.71875 36.667969 57.023438 36.667969 54.316406 L 36.667969 36.667969 L 42.222656 36.667969 L 42.222656 55.167969 C 42.222656 60.78125 38.964844 63.332031 34.214844 63.332031 C 29.917969 63.332031 26.816406 60.421875 25.554688 57.71875 Z M 29.921875 55.046875 "/>
</g>
</svg>
