<?xml version="1.0" encoding="UTF-8"?>
<svg xmlns="http://www.w3.org/2000/svg" xmlns:xlink="http://www.w3.org/1999/xlink" width="80pt" height="80pt" viewBox="0 0 80 80" version="1.1">
<g id="surface176933">
<path style=" stroke:none;fill-rule:nonzero;fill:rgb(83.529412%,0%,0%);fill-opacity:1;" d="M 0 25 L 80 25 L 80 53.332031 L 40 53.332031 L 40 58.332031 L 21.667969 58.332031 L 21.667969 53.332031 L 0 53.332031 Z M 0 25 "/>
<path style=" stroke:none;fill-rule:nonzero;fill:rgb(100%,100%,100%);fill-opacity:1;" d="M 5 48.332031 L 13.332031 48.332031 L 13.332031 35 L 18.332031 35 L 18.332031 48.332031 L 21.667969 48.332031 L 21.667969 30 L 5 30 Z M 26.667969 30 L 26.667969 53.332031 L 35 53.332031 L 35 48.332031 L 43.332031 48.332031 L 43.332031 30 Z M 40 43.332031 L 35 43.332031 L 35 35 L 40 35 Z M 48.332031 30 L 48.332031 48.332031 L 56.667969 48.332031 L 56.667969 35 L 61.667969 35 L 61.667969 48.332031 L 66.667969 48.332031 L 66.667969 35 L 71.667969 35 L 71.667969 48.332031 L 75 48.332031 L 75 30 Z M 48.332031 30 "/>
</g>
</svg>
